<?xml version="1.0" standalone="no"?>
<!DOCTYPE svg PUBLIC "-//W3C//DTD SVG 20010904//EN"
 "http://www.w3.org/TR/2001/REC-SVG-20010904/DTD/svg10.dtd">
<svg version="1.0" xmlns="http://www.w3.org/2000/svg"
 width="309.000000pt" height="489.000000pt" viewBox="0 0 309.000000 489.000000"
 preserveAspectRatio="xMidYMid meet">

<g transform="translate(0.000000,489.000000) scale(0.100000,-0.100000)"
fill="#000000" stroke="none">
<path d="M1350 4519 c-118 -32 -248 -87 -291 -125 -8 -8 -18 -14 -21 -14 -7 0
-74 -58 -124 -106 -23 -23 -44 -33 -78 -36 -35 -4 -53 -13 -81 -42 -19 -20
-35 -39 -35 -42 0 -2 -8 -14 -19 -25 -23 -25 -88 -150 -108 -209 -54 -157 -68
-315 -33 -360 30 -39 26 -67 -13 -84 -106 -44 -150 -168 -112 -314 10 -37 24
-77 31 -89 8 -12 14 -27 14 -33 0 -25 66 -143 100 -179 29 -31 48 -41 84 -46
43 -7 48 -11 83 -69 70 -117 183 -249 253 -296 79 -53 82 -64 26 -74 -20 -4
-48 -13 -63 -21 -15 -8 -36 -15 -45 -15 -10 0 -18 -4 -18 -9 0 -5 -13 -12 -30
-16 -16 -4 -30 -11 -30 -16 0 -5 -6 -9 -14 -9 -21 0 -139 -92 -201 -157 -91
-96 -190 -260 -209 -350 -7 -29 -5 -32 23 -38 17 -4 31 -9 31 -11 0 -3 -13
-25 -30 -48 -74 -109 -102 -198 -65 -212 8 -4 15 -19 15 -34 0 -16 4 -32 10
-35 5 -3 17 -22 27 -42 9 -20 25 -38 35 -41 10 -2 18 -10 18 -17 0 -21 29 -45
54 -45 26 0 55 28 71 68 9 21 18 26 48 28 70 2 95 49 124 232 5 31 12 37 43
32 31 -4 30 -19 -3 -86 -48 -95 -95 -244 -103 -320 l-7 -64 43 0 42 0 -6 -37
c-9 -48 -64 -283 -81 -346 -15 -53 -8 -63 37 -58 36 3 36 -10 0 -31 -94 -57
-162 -172 -162 -277 l0 -41 460 0 460 0 0 60 c0 75 -32 144 -95 204 -50 48
-86 76 -97 76 -4 0 -8 5 -8 10 0 6 85 10 235 10 129 0 235 -3 235 -8 0 -4 -17
-16 -37 -27 -98 -53 -173 -170 -173 -269 l0 -56 459 0 c453 0 460 0 466 20 11
35 -15 134 -49 185 -28 42 -88 97 -130 120 -20 11 -36 23 -36 27 0 5 23 8 51
8 48 0 51 1 45 23 -3 12 -13 59 -21 103 -8 45 -18 101 -24 125 -39 177 -39
179 6 179 24 0 25 1 18 53 -9 65 -44 199 -56 211 -5 6 -9 17 -9 25 0 9 -16 47
-35 85 -43 85 -44 98 -8 94 23 -2 29 -9 36 -43 35 -173 60 -217 123 -219 29
-1 39 -7 51 -31 35 -68 77 -85 111 -44 9 12 29 35 45 52 15 18 27 37 27 43 0
6 7 17 15 24 8 7 17 27 21 46 3 19 10 37 15 40 26 16 -1 95 -62 185 -45 66
-45 69 -21 69 10 0 26 6 35 13 15 11 15 16 -3 67 -44 122 -114 227 -223 335
-90 89 -214 166 -334 206 -37 12 -81 28 -96 34 l-28 12 43 34 c58 45 173 162
195 199 9 17 21 30 25 30 4 0 8 5 8 11 0 6 14 30 30 54 17 24 30 48 30 54 0 9
60 31 87 31 23 0 81 66 111 125 109 216 127 331 71 443 -17 34 -36 62 -44 62
-7 0 -18 7 -25 15 -7 8 -21 15 -31 15 -29 0 -29 52 -1 84 35 38 12 222 -48
385 -26 73 -90 178 -142 235 -36 40 -50 48 -88 53 -35 5 -56 16 -95 52 -71 65
-94 83 -140 111 -22 13 -42 27 -45 30 -15 17 -114 55 -212 80 -83 22 -262 26
-328 9z m383 -81 c53 -17 97 -35 97 -40 0 -4 5 -8 11 -8 15 0 139 -82 139 -92
0 -4 4 -8 10 -8 5 0 26 -17 46 -37 33 -33 37 -42 35 -81 -1 -27 4 -51 12 -61
53 -60 122 -252 153 -429 22 -121 53 -172 105 -172 27 0 29 -2 29 -40 0 -36 3
-40 24 -40 43 0 74 -18 100 -57 22 -32 26 -48 26 -114 0 -62 -6 -92 -31 -155
-74 -188 -118 -244 -194 -244 -38 0 -41 -3 -64 -50 -14 -28 -27 -50 -30 -50
-4 0 -15 -19 -26 -41 -10 -23 -25 -44 -32 -46 -7 -3 -13 -10 -13 -16 0 -11
-151 -167 -162 -167 -4 0 -19 -11 -34 -25 -15 -14 -38 -28 -51 -31 -13 -4 -23
-10 -23 -14 0 -5 -13 -11 -30 -15 -16 -4 -30 -10 -30 -15 0 -5 -15 -12 -32
-15 -18 -4 -38 -11 -43 -16 -34 -26 -248 -46 -325 -29 -83 17 -200 54 -200 61
0 4 -13 10 -30 14 -16 4 -30 11 -30 16 0 5 -5 9 -10 9 -11 0 -48 25 -99 65
-48 38 -146 141 -176 186 -16 24 -33 46 -37 47 -5 2 -8 7 -8 12 0 4 -14 33
-32 64 -31 54 -34 56 -75 56 -24 0 -43 5 -43 10 0 6 -6 10 -14 10 -19 0 -68
65 -90 120 -10 25 -23 54 -28 64 -29 55 -48 135 -48 200 0 60 4 77 26 109 26
39 57 57 100 57 21 0 24 4 24 40 0 38 2 40 31 40 53 0 83 45 104 158 24 136
48 218 91 320 8 18 14 37 14 43 0 11 40 70 55 81 5 4 10 30 10 58 0 49 3 54
50 97 217 197 479 257 748 171z m-865 -261 l22 -13 -38 -59 c-21 -33 -41 -69
-45 -80 -3 -11 -15 -47 -27 -80 -29 -82 -57 -189 -65 -254 -14 -103 -47 -147
-93 -122 -47 25 -39 138 25 336 17 54 71 164 88 180 6 6 22 27 35 47 21 31 51
56 70 57 3 0 15 -5 28 -12z m1319 0 c51 -28 163 -214 184 -307 42 -181 49
-225 38 -257 -13 -41 -43 -59 -74 -45 -18 8 -25 26 -39 99 -10 48 -22 106 -28
128 -6 22 -14 56 -19 75 -16 73 -76 212 -113 263 -21 28 -21 29 -2 43 24 17
25 17 53 1z m-454 -1894 c-7 -2 -19 -2 -25 0 -7 3 -2 5 12 5 14 0 19 -2 13 -5z
m-394 -33 c-5 -3 -10 -98 -12 -210 l-2 -205 -3 223 c-2 190 0 221 12 210 8 -7
10 -15 5 -18z m238 16 c2 -2 -7 -22 -21 -45 -14 -22 -26 -45 -26 -50 0 -5 -6
-13 -13 -19 -10 -8 -19 -2 -37 28 -14 22 -28 40 -32 40 -5 0 -8 7 -8 15 0 8
-4 15 -9 15 -5 0 -11 6 -14 13 -3 9 15 12 75 10 44 -1 82 -4 85 -7z m76 -26
c-3 -12 -8 -19 -11 -16 -5 6 5 36 12 36 2 0 2 -9 -1 -20z m-269 -36 c3 -8 2
-12 -4 -9 -6 3 -10 10 -10 16 0 14 7 11 14 -7z m34 -59 c-3 -3 -9 2 -12 12 -6
14 -5 15 5 6 7 -7 10 -15 7 -18z m-267 -8 c46 -31 63 -68 54 -123 -4 -31 -15
-50 -38 -70 -27 -23 -38 -26 -84 -22 -62 5 -98 36 -109 94 -8 43 20 104 54
119 12 5 22 13 22 17 0 17 69 7 101 -15z m589 -172 l0 -195 -187 0 c-102 0
-184 3 -180 6 3 3 85 5 181 4 l176 -1 0 191 c0 104 2 190 5 190 3 0 5 -88 5
-195z m268 181 c65 -34 92 -93 68 -149 -41 -100 -176 -106 -225 -10 -6 12 -11
34 -11 50 0 36 35 94 61 100 10 3 19 9 19 14 0 14 58 11 88 -5z m-541 -68 c-3
-8 -6 -5 -6 6 -1 11 2 17 5 13 3 -3 4 -12 1 -19z m64 -45 c-12 -20 -14 -14 -5
12 4 9 9 14 11 11 3 -2 0 -13 -6 -23z m-148 -93 c-3 -11 -9 -20 -14 -20 -5 0
-9 -6 -9 -14 0 -8 -4 -18 -10 -21 -12 -7 -2 21 18 53 18 27 22 28 15 2z m60
-55 c-3 -9 -8 -14 -10 -11 -3 3 -2 9 2 15 9 16 15 13 8 -4z m-32 -56 c-5 -13
-10 -19 -10 -12 -1 15 10 45 15 40 3 -2 0 -15 -5 -28z m331 -127 c4 -4 8 -126
8 -272 1 -170 5 -269 12 -277 7 -9 42 -13 113 -13 l102 0 12 -52 c23 -96 43
-182 55 -245 l13 -62 -105 -3 c-57 -2 -107 -1 -111 2 -7 5 -22 84 -42 210 -14
96 -16 100 -51 100 -27 0 -30 -3 -24 -22 4 -13 11 -52 16 -88 5 -36 14 -81 20
-100 5 -19 10 -52 10 -73 l0 -38 -107 3 -108 3 -3 273 -2 272 -24 0 c-13 0
-27 -7 -30 -16 -3 -9 -6 -129 -6 -267 0 -139 -4 -256 -8 -262 -4 -5 -55 -11
-114 -13 -124 -4 -117 -10 -94 98 8 36 19 92 25 125 6 33 14 70 17 81 5 18 1
22 -24 26 -27 4 -30 1 -40 -41 -7 -25 -16 -73 -21 -106 -6 -33 -16 -88 -22
-122 l-13 -63 -108 0 -109 0 6 48 c4 26 13 66 21 90 8 23 14 53 14 66 0 13 7
43 15 66 8 23 15 55 15 71 0 15 5 31 11 35 6 3 60 6 119 5 60 -1 110 2 113 6
5 7 17 376 17 505 l0 57 63 3 c104 5 361 -2 369 -10z m-1134 -15 c28 -6 52
-15 52 -19 0 -4 10 -8 23 -8 45 0 50 -12 38 -81 -20 -118 -38 -168 -62 -169
-4 0 -9 14 -12 30 -9 44 -39 40 -60 -8 -9 -21 -17 -45 -17 -53 0 -8 -10 -25
-21 -39 -18 -23 -20 -23 -18 -5 3 38 -1 45 -26 45 -21 0 -25 5 -25 30 0 20 -5
30 -15 30 -10 0 -15 11 -15 35 0 24 -5 35 -15 35 -8 0 -15 9 -15 19 0 20 29
82 43 92 11 8 34 48 43 72 5 14 12 17 28 12 11 -4 45 -12 74 -18z m1940 -10
c7 -15 17 -27 21 -27 5 0 11 -8 15 -17 3 -10 17 -36 30 -58 31 -49 32 -61 5
-68 -18 -5 -20 -11 -14 -36 5 -24 3 -31 -9 -31 -16 0 -20 -10 -16 -43 1 -13
-4 -18 -17 -17 -37 4 -43 0 -43 -31 0 -27 -2 -30 -15 -19 -8 7 -15 17 -15 24
0 6 -10 34 -22 63 -25 62 -55 72 -64 23 -4 -16 -11 -30 -16 -30 -13 0 -48 80
-48 111 0 15 -7 46 -15 69 -20 58 -20 57 25 65 22 4 42 11 45 15 3 5 26 12 50
16 25 3 48 11 51 16 10 17 39 3 52 -25z m-310 -580 c14 -57 32 -151 42 -212 4
-27 11 -62 15 -77 l7 -28 -90 0 -89 0 -11 43 c-6 23 -16 62 -22 87 -6 25 -16
68 -21 97 -5 29 -14 64 -19 78 -22 58 -19 60 84 57 l94 -3 10 -42z m-1243 16
c-15 -70 -37 -163 -51 -209 -8 -28 -14 -60 -14 -72 0 -12 -5 -33 -12 -47 -10
-23 -16 -25 -81 -25 l-69 0 7 53 c4 28 12 63 17 77 5 14 13 45 18 70 5 25 13
63 19 85 5 22 12 52 16 68 5 27 7 27 80 27 l75 0 -5 -27z m178 -419 c20 -6 23
-24 3 -24 -15 0 -96 -75 -96 -88 0 -5 -9 -20 -21 -33 -17 -19 -22 -21 -29 -9
-6 8 -10 18 -10 21 0 13 -96 109 -109 109 -7 0 -11 6 -9 13 3 6 27 15 54 18
49 7 184 2 217 -7z m982 -5 c6 -6 0 -16 -15 -26 -39 -27 -100 -96 -100 -112 0
-5 -6 -11 -12 -13 -14 -5 -38 15 -38 30 0 16 -90 102 -106 102 -23 0 -16 19 9
25 70 15 243 11 262 -6z m-928 -25 c-3 -3 -12 -4 -19 -1 -8 3 -5 6 6 6 11 1
17 -2 13 -5z m630 0 c-3 -3 -12 -4 -19 -1 -8 3 -5 6 6 6 11 1 17 -2 13 -5z
m-989 -36 c55 -38 92 -76 92 -94 0 -7 5 -14 12 -16 6 -2 8 -10 4 -16 -5 -8
-53 -12 -162 -12 -142 0 -154 1 -154 18 0 23 87 117 118 126 12 4 22 12 22 17
0 16 21 10 68 -23z m430 15 c55 -36 112 -91 112 -110 0 -6 5 -13 12 -15 6 -2
8 -10 4 -16 -5 -8 -53 -12 -162 -12 -145 0 -154 1 -154 19 0 24 58 87 113 123
51 33 43 31 75 11z m605 -65 c26 -27 47 -57 47 -68 0 -19 -7 -20 -156 -20
l-156 0 7 27 c7 31 76 103 120 126 27 14 33 14 60 -1 16 -9 51 -38 78 -64z
m357 72 c0 -5 7 -10 15 -10 23 0 125 -106 125 -130 0 -19 -6 -20 -154 -20
-103 0 -157 4 -162 11 -3 6 -3 14 2 18 5 3 20 22 33 41 13 19 46 49 75 67 55
35 66 39 66 23z m-253 -136 c-3 -3 -12 -4 -19 -1 -8 3 -5 6 6 6 11 1 17 -2 13
-5z m60 0 c-3 -3 -12 -4 -19 -1 -8 3 -5 6 6 6 11 1 17 -2 13 -5z m-619 -89 c3
-3 -181 -5 -409 -5 -228 0 -409 4 -402 8 12 8 803 5 811 -3z m980 0 c3 -3
-178 -5 -401 -5 -224 0 -407 3 -407 8 0 8 800 5 808 -3z"/>
<path d="M1380 4024 c-58 -7 -149 -36 -154 -49 -2 -7 1 -21 8 -30 11 -15 15
-15 56 2 65 26 354 26 419 0 38 -15 46 -16 58 -4 42 42 -57 77 -232 82 -66 2
-136 1 -155 -1z"/>
<path d="M1310 3875 c-150 -21 -230 -49 -230 -80 0 -22 26 -24 82 -9 118 33
272 55 358 51 91 -5 233 -28 318 -51 59 -17 82 -13 82 14 0 20 -24 30 -120 53
-154 37 -331 45 -490 22z"/>
<path d="M1064 3613 c-22 -35 -30 -129 -14 -177 6 -20 22 -44 35 -52 21 -14
26 -14 49 1 14 9 30 33 37 52 15 46 6 143 -16 177 -24 36 -66 35 -91 -1z"/>
<path d="M1851 3619 c-43 -47 -38 -179 10 -225 l29 -28 27 20 c40 30 59 105
43 169 -7 28 -19 58 -28 68 -20 23 -57 22 -81 -4z"/>
<path d="M588 3278 c-28 -23 -48 -62 -47 -93 1 -67 71 -185 110 -185 31 0 34
28 6 58 -13 15 -32 41 -41 59 -16 33 -22 103 -8 103 13 0 32 39 26 55 -7 18
-25 19 -46 3z"/>
<path d="M2377 3283 c-12 -11 -8 -34 8 -49 34 -34 11 -134 -42 -181 -21 -19
-24 -25 -13 -38 18 -22 38 -19 66 12 35 38 64 109 64 157 0 32 -7 49 -29 74
-30 32 -42 38 -54 25z"/>
<path d="M1434 3093 c-30 -72 -29 -89 4 -123 20 -20 40 -30 60 -30 51 0 54 56
4 62 -33 4 -40 36 -17 72 20 31 14 56 -15 56 -13 0 -25 -12 -36 -37z"/>
<path d="M1108 2904 c-20 -14 -41 -36 -48 -50 -8 -13 -17 -24 -21 -24 -13 0
-61 -108 -66 -151 -5 -36 -4 -39 19 -39 20 0 27 6 31 29 12 56 51 124 99 171
26 26 48 54 48 62 0 27 -26 27 -62 2z"/>
<path d="M1851 2917 c-17 -17 -14 -23 42 -79 54 -55 80 -99 95 -158 7 -28 13
-35 33 -35 22 0 24 3 20 40 -9 101 -149 273 -190 232z"/>
<path d="M1173 2828 c-27 -13 -30 -50 -8 -121 20 -67 85 -156 113 -157 6 0 12
-4 12 -8 0 -5 24 -19 53 -32 44 -20 68 -23 157 -23 89 0 113 3 158 23 28 13
52 27 52 32 0 4 6 8 13 8 25 0 93 95 112 156 37 123 16 142 -132 117 -125 -22
-281 -22 -407 0 -55 9 -100 17 -100 16 -1 0 -11 -5 -23 -11z m203 -80 c11 -11
238 -10 250 1 5 5 44 12 86 16 l76 7 -11 -43 c-11 -47 -15 -52 -64 -106 -56
-62 -95 -76 -213 -76 -91 0 -111 3 -148 22 -60 33 -116 100 -129 155 -5 25 -9
47 -7 49 6 5 152 -18 160 -25z"/>
<path d="M1000 2070 c-14 -34 -6 -78 15 -86 16 -6 65 33 65 52 0 14 -46 64
-58 64 -5 0 -15 -13 -22 -30z"/>
<path d="M1122 2067 l-32 -33 37 -33 37 -32 12 23 c17 30 17 68 0 91 -17 22
-17 22 -54 -16z"/>
<path d="M1872 2080 c-21 -34 -8 -100 19 -100 15 0 59 42 59 56 0 10 -51 64
-61 64 -2 0 -10 -9 -17 -20z"/>
<path d="M1987 2067 l-27 -32 36 -33 c42 -38 54 -32 54 30 0 75 -19 86 -63 35z"/>
</g>
</svg>
