<?xml version="1.0" standalone="no"?>
<!DOCTYPE svg PUBLIC "-//W3C//DTD SVG 20010904//EN"
 "http://www.w3.org/TR/2001/REC-SVG-20010904/DTD/svg10.dtd">
<svg version="1.0" xmlns="http://www.w3.org/2000/svg"
 width="1539.000000pt" height="1570.000000pt" viewBox="0 0 1539.000000 1570.000000"
 preserveAspectRatio="xMidYMid meet">

<g transform="translate(0.000000,1570.000000) scale(0.100000,-0.100000)"
fill="#000000" stroke="none">
<path d="M6880 13919 c-58 -5 -132 -11 -165 -13 -33 -2 -78 -7 -100 -9 -22 -3
-67 -8 -100 -12 -32 -4 -62 -8 -66 -11 -4 -2 -22 -6 -40 -8 -86 -11 -136 -19
-154 -22 -11 -3 -42 -9 -70 -15 -27 -6 -64 -12 -82 -14 -17 -1 -35 -5 -40 -8
-9 -5 -51 -15 -93 -22 -43 -6 -168 -40 -220 -60 -19 -7 -43 -11 -52 -10 -10 2
-18 -1 -18 -6 0 -4 -6 -6 -13 -3 -8 3 -40 -5 -73 -18 -32 -13 -63 -23 -69 -23
-20 -2 -90 -28 -112 -43 -13 -8 -23 -11 -23 -7 0 4 -7 2 -15 -5 -9 -7 -18 -10
-22 -7 -3 4 -15 1 -27 -5 -11 -7 -24 -13 -28 -14 -5 -1 -10 -3 -13 -4 -3 -1
-8 -3 -12 -5 -5 -1 -21 -7 -38 -14 -16 -7 -38 -13 -47 -14 -10 -1 -18 -4 -18
-8 0 -3 -25 -14 -55 -24 -30 -11 -55 -23 -55 -27 0 -4 -8 -8 -18 -8 -11 0 -32
-6 -48 -14 -63 -31 -123 -56 -133 -56 -5 0 -11 -4 -13 -8 -3 -9 -113 -62 -128
-62 -6 0 -10 -4 -10 -9 0 -5 -15 -14 -32 -21 -62 -23 -138 -62 -138 -71 0 -5
-10 -9 -23 -9 -12 0 -30 -9 -40 -20 -9 -11 -25 -20 -35 -20 -9 0 -28 -10 -42
-23 -14 -12 -40 -29 -57 -36 -18 -7 -33 -17 -33 -22 0 -5 -7 -9 -15 -9 -8 0
-15 -4 -15 -10 0 -5 -6 -10 -14 -10 -12 0 -100 -53 -133 -80 -7 -6 -15 -10
-19 -10 -4 0 -14 -7 -23 -15 -30 -28 -81 -67 -81 -61 0 3 -12 -6 -26 -19 -15
-14 -32 -25 -38 -25 -6 0 -27 -14 -46 -30 -19 -16 -40 -30 -46 -30 -7 0 -15
-7 -18 -16 -4 -9 -9 -14 -13 -11 -3 4 -12 -1 -19 -11 -7 -9 -16 -17 -21 -17
-5 0 -19 -10 -33 -22 -13 -13 -28 -23 -32 -23 -5 0 -7 -4 -4 -8 3 -4 -17 -23
-45 -40 -27 -18 -49 -38 -49 -44 0 -6 -3 -9 -6 -5 -6 6 -25 -9 -75 -57 -16
-15 -29 -25 -29 -22 0 3 -8 -2 -18 -11 -11 -10 -18 -20 -16 -23 5 -11 -24 -30
-46 -30 -5 0 -10 -7 -10 -15 0 -9 -8 -19 -17 -22 -10 -4 -59 -48 -109 -99 -51
-51 -95 -90 -98 -87 -3 4 -6 2 -6 -4 0 -5 -40 -52 -90 -104 -49 -52 -90 -97
-90 -101 0 -5 -7 -8 -15 -8 -8 0 -15 -4 -15 -9 0 -4 -12 -20 -26 -35 -15 -14
-23 -26 -18 -26 5 -1 -2 -7 -16 -15 -14 -8 -21 -14 -16 -15 5 0 -2 -10 -15
-23 -29 -28 -64 -69 -102 -120 -16 -20 -39 -49 -53 -64 -13 -14 -24 -32 -24
-39 0 -8 -7 -14 -16 -14 -8 0 -13 -4 -10 -8 3 -5 -10 -24 -29 -42 -19 -19 -35
-38 -35 -42 0 -4 -8 -16 -17 -26 -40 -42 -53 -64 -47 -75 4 -7 4 -9 -1 -5 -7
7 -20 -8 -41 -51 -4 -7 -18 -25 -30 -39 -13 -14 -24 -29 -24 -34 0 -4 -25 -42
-55 -83 -31 -41 -53 -75 -49 -75 4 0 0 -8 -9 -18 -10 -10 -14 -22 -10 -25 3
-4 1 -7 -5 -7 -7 0 -12 -5 -12 -11 0 -6 -11 -25 -25 -43 -14 -18 -25 -38 -25
-45 0 -7 -4 -10 -10 -6 -5 3 -14 -13 -20 -35 -6 -23 -17 -43 -25 -46 -8 -3
-11 -13 -8 -21 4 -10 2 -14 -5 -9 -6 4 -16 -8 -23 -29 -7 -19 -17 -35 -21 -35
-4 0 -8 -9 -8 -20 0 -11 -4 -20 -9 -20 -5 0 -12 -13 -16 -30 -4 -16 -11 -30
-16 -30 -5 0 -8 -3 -7 -7 2 -14 -32 -83 -41 -83 -9 0 -26 -48 -23 -62 1 -5 -3
-8 -9 -8 -5 0 -7 -5 -4 -10 3 -6 0 -13 -9 -16 -8 -3 -18 -20 -22 -37 -3 -18
-14 -40 -23 -51 -9 -10 -15 -21 -15 -25 2 -8 -9 -37 -40 -101 -14 -29 -26 -60
-26 -68 0 -7 -7 -20 -15 -28 -8 -9 -15 -24 -15 -34 0 -10 -4 -22 -10 -25 -5
-3 -10 -14 -10 -23 0 -9 -10 -37 -21 -62 -11 -25 -19 -45 -18 -45 1 0 -3 -11
-10 -23 -7 -13 -15 -36 -17 -50 -3 -15 -9 -31 -15 -36 -5 -6 -9 -16 -9 -23 0
-7 -9 -33 -21 -58 -11 -24 -18 -48 -15 -53 3 -6 0 -14 -7 -20 -7 -6 -14 -25
-15 -42 -1 -18 -9 -45 -17 -61 -9 -16 -15 -32 -15 -36 -1 -5 -5 -26 -11 -48
-6 -22 -12 -44 -13 -50 -1 -5 -5 -15 -9 -21 -9 -15 -37 -129 -42 -172 -2 -18
-7 -37 -10 -42 -4 -6 -9 -23 -11 -38 -3 -15 -10 -45 -16 -67 -17 -67 -21 -84
-54 -255 -3 -14 -7 -36 -9 -50 -3 -14 -7 -38 -10 -55 -6 -36 -13 -91 -19 -142
-3 -21 -8 -54 -12 -73 -3 -19 -8 -48 -9 -65 -2 -16 -6 -55 -9 -85 -4 -30 -8
-80 -11 -110 -2 -30 -8 -100 -12 -155 -10 -129 -10 -733 0 -850 5 -49 10 -110
12 -135 2 -25 4 -45 5 -45 1 0 3 -22 5 -50 2 -27 6 -63 9 -80 3 -16 8 -50 10
-75 3 -25 9 -67 12 -95 4 -27 7 -58 8 -67 0 -10 4 -18 9 -18 4 0 5 -4 2 -10
-3 -5 -1 -27 4 -47 6 -21 12 -58 15 -83 3 -25 7 -56 10 -70 4 -14 9 -38 12
-55 2 -16 10 -48 16 -70 6 -22 12 -53 14 -68 2 -16 7 -34 11 -40 3 -6 7 -22 8
-36 2 -14 13 -62 25 -106 12 -44 23 -87 25 -95 2 -8 4 -16 5 -17 3 -3 3 -3 14
-53 5 -19 12 -40 16 -45 5 -6 10 -24 12 -40 3 -17 12 -47 21 -69 9 -21 17 -44
17 -51 0 -7 11 -42 24 -79 13 -36 21 -66 18 -66 -4 0 -2 -4 4 -8 6 -4 19 -32
28 -62 10 -30 25 -70 33 -89 8 -18 16 -39 17 -45 1 -6 7 -21 14 -33 7 -12 12
-29 12 -37 0 -9 5 -16 11 -16 6 0 9 -7 5 -15 -3 -8 -2 -15 3 -15 7 0 31 -65
30 -83 0 -5 8 -15 18 -23 10 -7 15 -14 10 -14 -4 0 1 -17 12 -39 11 -21 17
-41 14 -45 -4 -3 -1 -6 6 -6 7 0 10 -4 6 -9 -3 -5 2 -16 11 -25 8 -9 13 -20 9
-25 -3 -6 3 -14 12 -20 10 -6 14 -11 10 -11 -5 0 10 -34 32 -75 23 -41 38 -75
35 -75 -4 0 0 -8 8 -17 23 -26 78 -131 78 -149 0 -8 7 -17 15 -20 13 -5 28
-35 30 -57 0 -4 5 -11 11 -15 11 -7 43 -64 45 -79 1 -5 12 -21 25 -36 13 -16
24 -32 24 -37 0 -8 60 -105 80 -127 5 -7 10 -18 10 -25 0 -7 14 -27 30 -45 17
-18 30 -38 30 -45 0 -7 12 -23 27 -36 16 -13 22 -20 14 -16 -16 8 33 -61 61
-87 10 -9 18 -20 18 -25 0 -9 59 -85 100 -130 11 -12 20 -26 20 -30 0 -5 18
-29 40 -54 53 -59 60 -68 60 -74 0 -6 47 -59 107 -122 24 -24 43 -48 43 -52 0
-4 9 -13 20 -20 11 -7 20 -18 20 -25 0 -8 11 -20 25 -27 14 -7 25 -17 25 -21
0 -5 27 -36 60 -69 33 -33 60 -65 60 -71 0 -6 3 -8 7 -6 5 3 14 -1 21 -9 7 -8
10 -14 7 -14 -11 0 19 -26 38 -33 9 -3 17 -14 17 -23 0 -10 3 -14 7 -11 3 4
20 -8 38 -26 17 -17 48 -47 69 -64 20 -18 34 -33 30 -33 -4 0 12 -14 35 -30
23 -17 44 -37 48 -45 3 -8 10 -15 15 -15 6 0 21 -11 34 -25 13 -14 25 -25 28
-25 3 0 16 -9 28 -20 13 -12 49 -42 80 -68 31 -26 73 -60 93 -77 20 -16 50
-38 68 -47 17 -10 28 -18 23 -18 -12 0 29 -31 79 -59 22 -13 44 -29 48 -37 4
-8 15 -14 24 -14 9 0 26 -10 38 -22 34 -34 49 -45 73 -52 12 -4 22 -12 22 -17
0 -5 6 -9 13 -9 8 0 22 -9 32 -20 10 -11 24 -20 32 -20 7 0 13 -5 13 -11 0 -5
5 -7 10 -4 6 3 10 1 10 -6 0 -7 3 -9 6 -6 4 4 24 -7 44 -23 20 -16 40 -27 44
-23 3 3 6 1 6 -6 0 -7 4 -10 9 -7 5 3 14 -1 21 -9 7 -8 18 -15 25 -15 7 0 15
-6 18 -14 3 -8 19 -17 36 -21 17 -4 31 -11 31 -16 0 -6 4 -8 9 -5 5 3 11 0 14
-7 2 -6 22 -18 43 -26 22 -7 46 -20 55 -28 9 -7 27 -16 39 -18 13 -3 26 -8 29
-12 3 -5 31 -19 61 -33 30 -14 58 -29 62 -35 4 -5 8 -6 8 -1 0 5 8 1 19 -8 16
-15 105 -53 137 -60 7 -1 18 -7 25 -12 13 -10 77 -38 89 -39 20 -3 50 -18 50
-25 0 -5 7 -7 15 -4 8 4 15 1 15 -5 0 -8 30 -20 93 -37 4 -1 10 -3 15 -4 4 -1
11 -2 16 -1 4 1 19 -5 32 -14 13 -8 31 -15 41 -15 10 0 26 -7 37 -15 10 -8 43
-20 72 -26 30 -7 54 -16 54 -21 0 -5 4 -6 10 -3 5 3 23 -1 40 -10 16 -8 32
-15 35 -15 3 0 6 0 8 -1 1 0 11 -2 22 -4 11 -2 34 -8 52 -13 17 -6 34 -8 37
-4 3 3 6 0 6 -6 0 -7 11 -12 25 -12 14 0 42 -7 61 -15 20 -8 40 -12 46 -9 5 3
15 0 23 -6 8 -6 18 -9 24 -6 5 3 11 2 13 -3 1 -6 30 -14 63 -20 33 -6 71 -13
85 -16 14 -3 34 -7 45 -9 11 -2 29 -6 40 -9 11 -4 38 -9 60 -12 22 -3 56 -8
75 -11 19 -2 51 -9 70 -14 19 -5 62 -12 96 -15 33 -3 72 -8 85 -11 24 -4 73
-10 179 -19 30 -3 87 -8 125 -12 99 -10 711 -9 825 2 52 5 106 9 120 10 14 1
27 3 30 4 3 2 23 4 45 6 22 2 60 6 85 10 25 4 61 8 80 10 19 2 55 8 79 13 25
6 48 9 51 7 4 -2 22 0 41 5 45 12 100 22 121 21 10 0 20 4 23 9 3 4 14 6 25 3
11 -3 20 -1 20 4 0 5 10 9 23 10 12 1 36 4 52 8 17 4 37 8 45 10 8 2 17 4 20
5 3 1 12 2 22 1 9 -1 19 3 23 9 3 5 19 10 35 10 16 0 41 5 57 11 15 7 37 13
48 14 29 5 49 10 60 17 10 6 83 27 118 34 10 1 47 15 82 29 35 14 68 25 72 24
4 -1 11 0 16 1 4 1 10 3 15 5 4 1 21 7 37 14 17 7 35 14 40 15 6 2 24 9 40 16
17 7 34 12 39 11 4 -1 19 5 32 14 13 8 33 15 44 15 14 0 19 4 14 12 -4 7 -3 8
4 4 6 -4 49 11 95 33 47 22 96 43 111 47 14 3 29 10 32 15 3 5 14 9 25 9 10 0
19 5 19 11 0 5 5 7 10 4 6 -3 10 -2 10 3 0 5 27 19 60 31 33 12 60 26 60 30 0
5 12 12 27 16 15 3 39 15 55 26 15 11 28 17 28 14 0 -4 7 1 16 9 8 9 22 16 30
16 9 0 35 14 60 30 24 17 44 27 44 23 0 -4 4 -3 8 3 4 6 36 26 72 45 36 18 71
40 78 47 8 7 28 20 45 28 18 9 40 23 50 32 9 8 17 12 17 8 0 -4 10 2 22 14 12
11 27 20 33 20 7 0 20 9 30 20 10 11 24 20 32 20 7 0 13 5 13 10 0 6 3 9 8 8
4 -1 21 10 37 26 17 16 44 34 60 42 29 12 78 48 117 87 10 9 22 17 26 17 5 0
19 11 32 25 13 14 28 25 33 25 5 0 16 8 24 18 9 11 12 12 8 2 -4 -8 9 2 29 23
20 20 40 37 44 37 4 0 13 9 20 20 7 12 17 18 22 15 6 -3 10 -1 10 5 0 6 11 16
25 22 13 6 27 19 30 29 4 10 9 18 13 16 11 -3 100 76 238 209 35 34 65 59 68
56 4 -3 6 2 6 12 0 9 3 15 8 13 9 -4 52 40 45 47 -3 3 6 10 21 15 14 6 26 16
26 22 0 7 25 36 55 65 30 30 55 58 55 64 0 6 5 8 10 5 6 -3 10 -1 10 6 0 7 16
27 35 45 18 19 32 34 29 34 -3 0 9 12 26 26 17 15 29 29 26 31 -2 3 10 19 27
37 18 18 41 45 52 59 11 15 34 42 50 62 50 57 56 64 53 67 -2 2 12 18 29 37
18 18 30 37 27 42 -3 5 2 9 10 9 8 0 18 9 21 20 3 11 11 20 16 20 5 0 9 8 9
18 0 10 8 25 18 34 27 25 52 61 52 75 0 7 4 13 9 13 4 0 32 38 62 85 30 47 57
85 62 85 4 0 7 8 7 18 0 10 10 29 23 42 12 14 22 27 22 30 0 3 10 19 21 35 12
17 32 51 44 77 12 27 26 45 31 42 5 -3 9 7 9 21 0 14 4 24 9 20 5 -3 15 12 21
32 7 21 17 43 24 48 15 14 36 52 36 66 0 6 9 24 21 40 11 16 17 29 12 29 -4 0
-3 4 3 8 6 4 21 30 35 57 13 28 28 53 33 56 5 4 5 12 1 19 -5 8 -4 11 2 7 6
-4 14 0 17 9 4 10 2 13 -7 9 -6 -4 -4 0 5 8 10 8 15 16 12 19 -2 3 5 23 18 44
12 21 24 47 25 58 2 11 9 24 16 28 6 4 8 8 3 8 -5 0 -2 8 8 19 9 10 18 27 21
38 2 12 13 39 24 61 12 23 21 50 21 62 0 11 5 20 11 20 5 0 7 5 4 10 -3 6 -2
10 4 10 6 0 8 6 5 14 -3 7 2 21 11 30 9 9 13 16 9 16 -5 0 -3 5 4 12 7 7 12
22 12 34 0 13 5 26 10 29 6 3 10 13 10 21 0 8 9 33 19 55 11 21 22 57 26 79 4
22 11 40 16 40 4 0 6 7 3 15 -4 8 -1 15 5 15 6 0 11 8 11 19 0 10 7 34 15 53
8 20 16 46 19 59 2 13 9 36 15 52 6 15 8 27 5 27 -4 0 -1 6 5 13 6 8 8 17 5
20 -3 3 -2 12 2 19 5 7 9 18 10 23 7 35 30 111 35 115 4 3 7 14 6 25 -1 27 13
77 27 94 9 12 8 13 -4 6 -13 -8 -13 -7 -1 8 7 9 11 17 8 17 -3 0 0 20 7 44 8
25 12 47 9 50 -3 2 -1 11 3 18 5 7 9 20 9 28 0 8 4 20 8 27 4 7 9 32 11 56 2
25 6 49 10 55 5 9 12 53 20 127 2 17 4 30 5 30 2 0 4 11 6 25 2 14 6 39 9 55
2 17 7 57 11 90 3 33 8 74 10 90 3 17 7 53 10 80 2 28 7 75 10 105 3 30 8 93
12 140 9 119 8 725 -1 845 -4 55 -9 120 -11 145 -2 25 -6 74 -10 110 -4 36 -9
79 -10 95 -2 17 -4 30 -5 30 -1 0 -3 11 -5 25 -2 14 -6 41 -9 60 -3 19 -8 58
-11 85 -8 70 -10 78 -18 93 -5 6 -6 16 -3 20 2 4 -2 37 -10 72 -8 36 -16 74
-18 85 -2 11 -7 36 -11 55 -4 19 -8 42 -9 50 -1 9 -5 21 -10 28 -4 6 -5 12 -2
12 2 0 -3 28 -11 63 -8 34 -16 69 -18 77 -2 8 -4 17 -5 20 -1 3 -2 8 -1 12 0
4 -8 30 -19 58 -11 27 -18 50 -15 50 2 0 -2 18 -10 40 -8 22 -12 40 -10 40 2
0 -3 16 -11 35 -8 19 -14 37 -14 40 0 3 0 6 -1 8 0 1 -2 9 -4 17 -19 69 -31
106 -37 110 -4 3 -12 28 -18 55 -6 27 -16 55 -22 62 -6 7 -7 13 -3 13 4 0 2 6
-4 13 -6 8 -8 17 -4 20 3 4 -2 16 -12 27 -10 11 -15 23 -12 26 3 4 1 16 -5 28
-7 11 -11 24 -10 29 1 4 -2 7 -8 7 -5 0 -10 10 -10 23 0 13 -5 28 -11 34 -6 6
-12 17 -13 24 -4 20 -16 51 -27 72 -5 10 -7 22 -4 27 3 5 1 11 -4 15 -15 8
-42 67 -28 58 7 -3 4 3 -5 14 -10 11 -18 27 -18 36 0 9 -4 17 -10 17 -5 0 -7
7 -4 15 4 8 1 15 -6 15 -6 0 -9 4 -5 9 3 5 -3 17 -12 27 -10 10 -16 19 -14 21
4 5 -30 74 -40 83 -3 3 -11 20 -17 39 -7 19 -20 44 -30 55 -12 14 -13 17 -2
11 13 -7 13 -6 0 11 -8 10 -29 46 -45 79 -17 33 -37 65 -45 72 -8 7 -12 13 -7
13 11 0 -41 101 -67 128 -11 13 -20 26 -18 28 5 8 -29 64 -39 64 -6 0 -8 4 -5
8 3 5 -5 20 -17 33 -12 13 -21 26 -19 29 1 3 -3 12 -10 21 -7 8 -24 37 -38 64
-13 26 -31 55 -40 63 -8 9 -15 18 -16 21 -3 18 -17 40 -23 36 -4 -2 -17 16
-29 40 -12 25 -27 45 -34 45 -6 0 -9 3 -5 6 6 6 4 10 -37 56 -14 15 -27 37
-31 48 -4 11 -10 18 -15 15 -5 -3 -11 4 -15 15 -3 11 -11 20 -17 20 -6 0 -8 3
-5 6 4 4 -4 19 -16 34 -12 15 -29 37 -37 50 -8 12 -30 37 -47 55 -18 18 -33
36 -33 40 0 7 -27 39 -116 137 -13 15 -24 32 -24 38 0 6 -4 8 -10 5 -5 -3 -10
-1 -10 5 0 7 -25 36 -55 66 -30 30 -52 54 -50 54 3 0 -24 29 -60 64 -36 35
-65 66 -65 70 0 6 -35 40 -152 146 -28 25 -71 66 -97 93 -26 26 -51 47 -54 47
-4 0 -35 27 -69 60 -34 32 -65 57 -69 54 -4 -2 -10 5 -14 16 -3 11 -10 20 -16
20 -9 0 -23 11 -84 63 -18 15 -38 27 -44 27 -6 0 -11 7 -11 16 0 8 -4 12 -10
9 -5 -3 -10 -1 -10 4 0 6 -3 10 -8 8 -4 -1 -18 8 -32 21 -40 36 -56 47 -71 50
-8 2 -15 8 -17 13 -2 5 -10 9 -18 9 -9 0 -12 5 -9 10 3 6 0 10 -8 10 -8 0 -17
7 -21 15 -3 8 -10 15 -17 15 -6 0 -31 16 -55 36 -24 20 -44 33 -44 28 0 -4
-10 1 -22 12 -13 11 -40 29 -60 39 -21 11 -38 23 -38 27 0 5 -4 8 -10 8 -5 0
-41 20 -80 45 -39 25 -76 45 -83 45 -7 0 -25 11 -40 25 -15 14 -27 22 -27 18
0 -4 -4 -3 -8 3 -6 10 -126 76 -142 79 -3 0 -32 15 -65 32 -33 17 -76 39 -95
49 -19 9 -37 20 -40 23 -7 8 -72 33 -87 34 -7 0 -13 5 -13 10 0 6 -3 7 -7 4
-3 -4 -21 2 -39 14 -18 11 -43 22 -55 24 -12 3 -25 8 -28 12 -3 5 -15 10 -26
11 -11 2 -31 10 -45 17 -47 25 -98 45 -113 45 -8 0 -20 6 -26 14 -6 7 -29 16
-51 20 -22 3 -40 11 -40 17 0 5 -5 7 -10 4 -6 -4 -25 1 -43 10 -36 19 -64 27
-89 27 -10 -1 -18 3 -18 9 0 5 -9 9 -19 9 -11 0 -23 5 -26 10 -4 6 -10 8 -14
5 -5 -2 -31 4 -60 14 -28 11 -51 17 -51 15 0 -3 -9 0 -19 6 -11 5 -37 13 -58
16 -21 3 -42 9 -48 14 -5 4 -17 7 -25 8 -8 0 -60 12 -115 26 -55 15 -115 29
-134 32 -18 3 -43 8 -55 10 -11 3 -55 12 -96 19 -41 8 -86 17 -100 20 -14 3
-54 8 -90 11 -36 4 -69 9 -73 11 -5 3 -32 7 -60 9 -29 2 -65 6 -82 9 -16 2
-52 7 -80 10 -27 3 -75 7 -105 11 -91 9 -678 12 -790 3z m385 -774 c106 -28
209 -98 293 -198 54 -65 125 -211 147 -302 18 -75 17 -35 44 -2490 18 -1591
18 -1585 64 -1623 47 -39 135 -14 169 49 18 33 19 88 16 1619 l-3 1585 22 78
c75 262 230 398 474 414 179 12 292 -28 410 -146 62 -62 85 -94 122 -171 25
-52 55 -131 66 -175 39 -157 43 -217 61 -1000 5 -225 12 -489 15 -585 3 -96
14 -533 25 -970 11 -437 22 -835 25 -885 3 -49 10 -328 15 -620 13 -718 32
-1138 62 -1348 12 -87 35 -125 88 -147 47 -19 132 -8 173 22 36 28 23 0 425
944 83 192 164 379 182 415 127 252 360 483 593 589 201 91 474 130 707 100
149 -19 259 -103 295 -222 29 -100 23 -128 -93 -408 -33 -80 -91 -221 -130
-315 -206 -503 -379 -920 -549 -1325 -36 -85 -87 -207 -113 -270 -82 -200
-378 -889 -500 -1165 -34 -77 -82 -196 -106 -265 -284 -816 -1096 -1393 -2254
-1600 -303 -54 -486 -71 -816 -77 -692 -13 -1157 56 -1619 239 -198 78 -468
236 -635 372 -93 75 -266 248 -341 341 -269 332 -462 763 -574 1278 -90 417
-172 1113 -220 1872 -17 270 -35 1920 -35 3231 0 633 3 786 15 855 29 170 84
288 175 379 110 111 218 152 395 154 167 1 282 -42 381 -141 64 -63 129 -189
149 -288 18 -91 26 -443 34 -1540 7 -966 3 -915 73 -951 38 -20 101 -14 130
13 51 45 49 -46 38 1836 -12 1945 -14 1838 54 1981 44 90 133 189 217 239 190
112 429 118 591 16 133 -85 229 -263 257 -476 10 -76 20 -685 41 -2511 11
-944 10 -925 59 -952 11 -5 39 -10 63 -10 49 0 82 23 99 67 6 16 9 745 9 1982
-1 1795 0 1963 16 2031 53 241 218 423 429 476 70 17 200 17 270 -1z"/>
</g>
</svg>
