<?xml version="1.0" standalone="no"?>
<!DOCTYPE svg PUBLIC "-//W3C//DTD SVG 20010904//EN"
 "http://www.w3.org/TR/2001/REC-SVG-20010904/DTD/svg10.dtd">
<svg version="1.0" xmlns="http://www.w3.org/2000/svg"
 width="1569.000000pt" height="1520.000000pt" viewBox="0 0 1569.000000 1520.000000"
 preserveAspectRatio="xMidYMid meet">

<g transform="translate(0.000000,1520.000000) scale(0.100000,-0.100000)"
fill="#000000" stroke="none">
<path d="M7575 13700 c-2 -3 -34 -5 -72 -4 -37 1 -72 -1 -77 -4 -4 -2 -30 -5
-57 -7 -27 -1 -52 -4 -55 -8 -4 -4 -14 -2 -21 5 -11 9 -16 9 -22 0 -4 -7 -21
-10 -39 -8 -18 2 -34 0 -37 -4 -2 -4 -24 -6 -49 -5 -25 0 -42 -3 -39 -8 3 -5
-5 -7 -18 -6 -13 2 -34 -2 -46 -9 -17 -9 -23 -9 -27 1 -5 9 -7 9 -12 -1 -3 -6
-10 -9 -15 -6 -6 3 -18 3 -27 -1 -9 -4 -28 -8 -42 -9 -14 0 -31 -5 -37 -9 -8
-5 -13 -4 -13 2 0 6 -5 11 -11 11 -5 0 -7 -4 -4 -10 3 -6 -1 -7 -9 -4 -9 4
-16 1 -16 -6 0 -7 -7 -10 -16 -6 -8 3 -31 -1 -50 -9 -19 -8 -32 -10 -28 -4 4
8 0 7 -14 0 -15 -8 -23 -8 -27 0 -5 6 -12 4 -22 -8 -8 -10 -11 -11 -7 -3 6 12
4 12 -12 -1 -11 -10 -30 -15 -47 -12 -22 3 -27 1 -21 -9 6 -11 5 -11 -8 0 -16
13 -52 6 -43 -8 3 -4 -9 -7 -25 -6 -17 1 -30 -2 -30 -7 0 -5 -7 -6 -16 -3 -9
4 -13 2 -8 -5 4 -8 -1 -9 -15 -4 -13 4 -21 2 -21 -5 0 -7 -6 -10 -14 -7 -7 3
-19 0 -26 -6 -10 -9 -11 -9 -6 0 5 9 2 11 -8 7 -9 -3 -16 -11 -16 -16 0 -5
-16 -8 -35 -5 -19 3 -38 1 -41 -4 -3 -5 -9 -7 -14 -4 -5 3 -11 1 -15 -4 -3 -6
-12 -8 -20 -4 -8 3 -15 0 -15 -6 0 -6 -7 -8 -17 -4 -10 4 -14 2 -10 -4 9 -14
-15 -23 -42 -16 -13 3 -21 1 -21 -7 0 -7 -7 -10 -15 -6 -8 3 -15 1 -15 -4 0
-5 -7 -7 -15 -4 -8 4 -15 1 -15 -6 0 -7 -7 -10 -16 -6 -8 3 -12 2 -9 -3 6 -11
-30 -25 -43 -17 -5 3 -23 -4 -41 -15 -18 -11 -36 -17 -41 -14 -4 3 -11 -2 -14
-11 -5 -13 -9 -14 -21 -4 -12 10 -16 9 -21 -4 -3 -9 -10 -13 -15 -10 -5 3 -15
2 -21 -3 -7 -4 -20 -8 -28 -10 -8 -1 -16 -6 -18 -12 -2 -5 -10 -7 -18 -4 -8 3
-14 0 -14 -7 0 -6 -4 -8 -10 -5 -5 3 -10 1 -10 -5 0 -7 -7 -9 -16 -6 -10 4
-13 2 -8 -6 5 -7 2 -9 -9 -5 -9 3 -17 1 -20 -6 -2 -7 -13 -13 -25 -13 -40 -3
-43 -4 -36 -16 5 -7 0 -9 -14 -6 -13 4 -23 0 -26 -9 -4 -10 -14 -13 -27 -10
-12 3 -22 0 -26 -9 -3 -8 -9 -11 -14 -8 -5 3 -9 0 -9 -5 0 -6 -6 -11 -14 -11
-7 0 -25 -9 -40 -21 -15 -11 -33 -18 -41 -16 -7 3 -15 1 -17 -4 -2 -6 -10 -11
-18 -13 -8 -1 -33 -13 -55 -27 -60 -37 -90 -51 -102 -47 -7 2 -19 -6 -28 -17
-9 -11 -14 -14 -10 -8 4 8 1 11 -9 7 -8 -3 -13 -11 -10 -18 3 -9 -3 -13 -18
-12 -13 1 -32 -8 -46 -23 -12 -13 -25 -21 -29 -18 -3 4 -13 1 -21 -6 -13 -10
-14 -9 -7 3 4 8 -4 4 -18 -9 -15 -13 -24 -28 -21 -33 3 -5 2 -8 -3 -7 -22 4
-54 -2 -49 -9 2 -4 -9 -14 -25 -21 -16 -7 -26 -17 -23 -22 3 -6 -5 -7 -21 -3
-19 5 -25 3 -23 -7 2 -7 -7 -18 -19 -24 -13 -5 -23 -13 -23 -18 0 -4 -4 -5
-10 -2 -5 3 -10 1 -10 -5 0 -6 -6 -10 -12 -9 -23 3 -42 -1 -36 -7 8 -8 -35
-51 -47 -47 -6 2 -21 -10 -34 -27 -18 -25 -25 -29 -37 -19 -11 9 -14 7 -14
-10 0 -12 -4 -19 -10 -16 -6 3 -13 -1 -16 -10 -4 -10 -14 -15 -25 -12 -12 3
-27 -6 -45 -30 -19 -25 -32 -33 -46 -30 -13 4 -18 1 -15 -8 4 -9 -1 -11 -14
-8 -16 5 -20 1 -17 -13 2 -11 -2 -18 -8 -17 -6 1 -25 -11 -43 -28 -18 -16 -37
-29 -42 -29 -6 0 -8 -4 -5 -9 3 -5 -2 -15 -11 -22 -14 -12 -16 -12 -8 1 8 13
7 13 -11 0 -10 -8 -22 -19 -25 -23 -3 -5 -8 -7 -10 -6 -7 6 -44 -26 -44 -38 0
-7 -4 -13 -9 -12 -5 0 -12 -3 -15 -8 -3 -4 -15 -15 -25 -23 -16 -12 -18 -12
-11 -1 6 10 4 12 -4 7 -7 -5 -10 -14 -7 -21 7 -19 -5 -27 -21 -14 -10 9 -13 8
-13 -5 0 -9 -7 -16 -15 -16 -8 0 -15 -4 -15 -10 0 -5 6 -10 13 -10 8 0 7 -3
-3 -9 -8 -6 -18 -7 -22 -5 -4 3 -8 0 -8 -6 0 -6 -4 -8 -10 -5 -9 6 -14 -7 -7
-21 4 -9 -32 -26 -43 -19 -6 3 -10 2 -10 -4 0 -5 -11 -22 -25 -37 -14 -15 -25
-30 -25 -34 0 -4 -11 -11 -25 -14 -14 -4 -24 -10 -21 -14 6 -10 -20 -32 -30
-24 -4 4 -4 -1 -1 -11 4 -11 3 -16 -3 -12 -6 3 -10 1 -10 -4 0 -6 -6 -10 -12
-8 -7 1 -12 -4 -10 -12 2 -8 -3 -11 -12 -8 -13 5 -29 -18 -31 -45 0 -3 -4 -10
-9 -15 -6 -5 -6 -2 -1 7 5 8 -3 3 -18 -12 -14 -16 -30 -28 -35 -28 -6 0 -9 -8
-8 -17 0 -11 -6 -18 -16 -17 -10 1 -14 -4 -11 -12 2 -7 -8 -19 -26 -29 -17 -8
-31 -22 -31 -30 0 -7 -9 -16 -19 -20 -10 -3 -22 -16 -25 -29 -4 -15 -13 -23
-23 -22 -12 1 -17 -5 -15 -18 2 -11 -1 -15 -7 -11 -6 3 -11 1 -11 -5 0 -6 -5
-8 -12 -4 -9 5 -9 2 1 -9 7 -9 10 -18 5 -18 -5 -1 -13 -2 -19 -3 -5 0 -10 -3
-10 -6 0 -14 -48 -70 -61 -70 -8 0 -14 -9 -14 -20 0 -11 -5 -20 -11 -20 -5 0
-7 -4 -4 -10 3 -5 -2 -10 -11 -10 -10 0 -15 -3 -12 -6 3 -3 -7 -19 -23 -37
-16 -17 -29 -37 -29 -44 0 -6 -6 -16 -13 -20 -7 -4 -20 -20 -30 -35 -10 -16
-23 -27 -30 -25 -6 1 -11 -4 -10 -10 2 -7 -2 -13 -8 -13 -6 0 -9 -7 -5 -15 3
-8 1 -15 -4 -15 -5 0 -17 -13 -26 -29 -10 -16 -26 -32 -37 -35 -14 -3 -18 -11
-14 -25 3 -14 0 -21 -10 -21 -8 0 -12 -4 -9 -9 3 -4 -3 -16 -14 -26 -11 -10
-20 -24 -20 -32 0 -8 -4 -12 -9 -9 -8 5 -25 -29 -22 -46 1 -5 -6 -8 -15 -8
-10 0 -14 -6 -10 -15 3 -9 0 -15 -9 -15 -7 0 -17 -5 -21 -12 -5 -7 -2 -9 7 -4
8 4 5 0 -5 -8 -11 -9 -16 -16 -10 -16 5 0 2 -5 -6 -10 -8 -5 -15 -15 -15 -22
-1 -7 -7 -12 -14 -10 -8 1 -11 -6 -9 -20 2 -13 -2 -22 -9 -21 -6 1 -14 -4 -17
-13 -4 -10 -2 -13 7 -8 9 6 9 5 0 -7 -6 -8 -13 -18 -15 -24 -1 -5 -7 -9 -11
-7 -5 1 -6 -2 -3 -7 4 -5 -1 -16 -9 -24 -8 -9 -15 -24 -15 -34 0 -13 -2 -15
-9 -5 -12 19 -32 -8 -26 -36 2 -12 -1 -22 -6 -22 -6 0 -7 -4 -4 -10 6 -9 -8
-14 -27 -11 -12 2 -9 -14 5 -28 10 -10 8 -11 -7 -5 -13 5 -17 4 -13 -3 4 -6 0
-16 -9 -23 -8 -7 -12 -20 -9 -28 3 -10 0 -12 -10 -8 -12 4 -14 0 -11 -19 3
-17 1 -22 -10 -18 -8 3 -15 -1 -15 -11 -3 -33 -4 -37 -17 -45 -7 -4 -14 -19
-16 -32 -4 -35 -16 -58 -43 -85 -20 -20 -22 -28 -12 -40 10 -12 9 -13 -7 -7
-16 6 -17 5 -6 -9 15 -18 0 -34 -20 -22 -7 4 -10 4 -6 -1 4 -4 2 -15 -5 -23
-9 -12 -9 -14 0 -8 14 8 -16 -55 -32 -66 -6 -5 -4 -8 5 -8 12 -1 12 -3 -2 -11
-11 -6 -15 -16 -11 -26 4 -10 2 -14 -4 -10 -12 8 -33 -35 -33 -69 0 -13 -7
-27 -15 -30 -10 -4 -13 -14 -8 -32 5 -20 3 -24 -10 -19 -12 4 -14 2 -10 -10 4
-11 2 -14 -5 -9 -8 4 -10 2 -6 -7 3 -8 0 -18 -5 -22 -6 -3 -9 -11 -6 -16 4 -5
2 -9 -3 -9 -6 0 -8 -10 -4 -22 4 -16 2 -19 -8 -13 -10 6 -12 4 -7 -8 3 -8 -1
-21 -9 -28 -8 -7 -13 -18 -10 -26 3 -8 -1 -16 -9 -19 -8 -4 -15 -19 -15 -34 0
-16 -5 -32 -10 -35 -6 -4 -8 -16 -4 -27 4 -13 2 -18 -4 -14 -7 4 -14 -8 -18
-29 -3 -19 -10 -35 -15 -35 -5 0 -6 -7 -3 -15 3 -8 -1 -21 -9 -30 -9 -8 -14
-24 -12 -35 2 -11 -2 -20 -9 -20 -7 0 -12 -14 -11 -37 0 -23 -6 -46 -17 -57
-12 -14 -15 -23 -8 -32 7 -8 6 -13 -4 -17 -9 -4 -12 -14 -9 -25 2 -11 -1 -31
-8 -43 -7 -13 -14 -27 -15 -31 -1 -5 -3 -10 -4 -13 -1 -3 -4 -9 -5 -15 -1 -5
-4 -13 -5 -17 -1 -5 -1 -16 0 -27 1 -12 -2 -16 -11 -10 -9 5 -11 2 -6 -9 3 -9
0 -32 -8 -51 -17 -41 -19 -60 -5 -51 5 3 5 -7 -1 -25 -6 -16 -15 -28 -19 -25
-5 3 -9 -3 -9 -12 1 -18 -8 -73 -12 -83 -1 -3 -3 -16 -4 -30 -1 -14 -3 -31 -4
-38 0 -7 -5 -10 -11 -7 -5 3 -10 1 -10 -4 0 -6 6 -11 13 -11 8 0 9 -3 1 -8 -6
-4 -10 -15 -8 -24 1 -10 -2 -18 -8 -18 -6 0 -7 -11 -4 -26 5 -18 2 -32 -9 -44
-12 -13 -13 -20 -5 -25 8 -5 6 -13 -6 -27 -14 -15 -16 -23 -7 -36 7 -13 7 -21
-3 -30 -7 -7 -11 -18 -8 -26 3 -8 0 -17 -5 -21 -6 -3 -8 -12 -4 -18 11 -17 13
-37 4 -37 -8 0 -11 -14 -12 -77 -1 -24 -6 -43 -12 -43 -8 0 -8 -3 0 -11 12
-12 5 -52 -7 -44 -5 3 -7 -12 -5 -32 2 -21 1 -42 -3 -48 -4 -5 -8 -19 -9 -30
-3 -16 -1 -17 7 -5 5 8 10 10 10 4 0 -6 -3 -14 -8 -18 -7 -8 -11 -38 -15 -136
-1 -30 -6 -61 -10 -68 -5 -8 -4 -19 3 -27 7 -8 8 -15 3 -15 -6 0 -9 -25 -8
-55 1 -30 -2 -55 -7 -55 -4 0 -8 -7 -8 -15 0 -8 6 -15 13 -15 8 0 8 -3 1 -8
-11 -7 -12 -57 -1 -69 4 -3 2 -12 -4 -20 -8 -9 -8 -17 0 -26 6 -8 8 -17 4 -21
-11 -10 -11 -399 0 -413 6 -8 6 -13 -1 -13 -5 0 -9 -13 -8 -29 0 -16 3 -28 6
-26 4 2 7 -24 8 -58 4 -149 7 -172 16 -179 7 -5 6 -8 -2 -8 -7 0 -10 -5 -7
-10 3 -6 7 -28 7 -50 0 -27 4 -38 12 -33 6 4 5 0 -2 -9 -9 -11 -10 -18 -2 -23
6 -3 8 -11 5 -16 -4 -5 -1 -9 6 -9 9 0 9 -3 0 -14 -9 -10 -9 -16 -1 -21 6 -4
9 -13 6 -21 -3 -7 -1 -16 5 -20 6 -4 6 -11 -2 -20 -8 -9 -8 -18 -2 -26 6 -7 8
-26 6 -41 -3 -19 0 -26 7 -22 7 4 9 -2 4 -19 -4 -18 -2 -26 7 -26 10 0 10 -3
1 -12 -17 -17 -15 -28 4 -21 14 5 15 3 4 -16 -8 -16 -8 -26 -1 -35 6 -7 8 -16
4 -19 -3 -4 -2 -7 4 -7 6 0 9 -10 9 -22 -1 -13 3 -29 8 -37 9 -12 8 -13 -4 -6
-12 7 -13 6 -3 -7 7 -8 10 -18 6 -21 -3 -4 0 -13 7 -22 8 -10 9 -15 1 -15 -6
0 -11 -5 -11 -11 0 -5 3 -8 8 -6 6 5 10 -13 12 -65 1 -10 5 -18 10 -18 5 0 7
-9 5 -20 -2 -11 1 -20 7 -20 5 0 8 -6 5 -14 -3 -8 -1 -17 6 -20 9 -5 9 -7 1
-11 -12 -6 -8 -41 6 -60 4 -5 6 -18 5 -27 -2 -10 1 -18 7 -18 6 0 8 -9 5 -20
-3 -11 -2 -20 2 -20 8 0 8 -3 13 -50 2 -14 8 -31 15 -37 6 -7 10 -26 8 -43 -2
-16 -1 -29 3 -29 19 3 25 -2 12 -11 -12 -7 -12 -12 4 -29 11 -12 16 -29 13
-40 -3 -12 0 -19 7 -18 6 1 11 -11 11 -29 1 -18 7 -39 14 -48 8 -9 11 -19 7
-23 -3 -3 2 -15 11 -26 13 -15 14 -18 3 -12 -13 7 -13 6 -2 -7 7 -9 12 -20 10
-24 -6 -22 12 -75 23 -68 9 5 10 -1 5 -19 -3 -14 -2 -28 4 -32 5 -3 7 -12 3
-20 -3 -9 1 -15 11 -15 10 0 13 -5 9 -17 -4 -11 -3 -14 5 -9 11 7 17 -11 13
-42 -1 -7 8 -27 20 -44 13 -17 18 -28 11 -24 -8 5 -10 2 -6 -8 3 -9 9 -16 13
-16 4 0 7 -12 6 -27 0 -18 5 -27 13 -25 8 1 11 -2 8 -7 -4 -5 -2 -12 3 -15 5
-3 7 -15 4 -25 -3 -11 4 -28 16 -40 12 -12 21 -26 21 -31 0 -6 7 -22 16 -35
11 -17 12 -25 5 -25 -7 0 -9 -5 -6 -10 4 -6 10 -8 15 -5 5 3 12 0 16 -6 4 -8
3 -9 -4 -5 -7 4 -12 2 -12 -3 0 -6 5 -11 11 -11 5 0 7 -4 4 -10 -3 -5 -1 -10
6 -10 7 0 10 -3 6 -6 -3 -4 1 -13 9 -21 12 -12 12 -18 2 -31 -11 -13 -11 -14
1 -7 11 6 13 4 8 -8 -3 -10 -2 -17 4 -17 6 0 8 -3 6 -7 -9 -15 12 -53 25 -48
9 4 14 -4 16 -20 1 -15 9 -33 17 -41 8 -9 13 -19 10 -24 -3 -4 2 -11 11 -14 9
-3 14 -13 11 -20 -3 -8 3 -26 14 -39 10 -14 19 -32 19 -41 0 -9 6 -16 14 -16
10 0 12 -7 8 -22 -3 -13 -1 -19 5 -15 6 4 13 -6 17 -23 3 -17 16 -41 28 -54
13 -12 24 -34 26 -47 1 -13 7 -26 12 -27 6 -2 8 -8 4 -13 -3 -5 0 -8 8 -7 7 2
14 -7 16 -20 2 -13 8 -20 14 -16 6 4 8 2 4 -4 -8 -13 14 -63 24 -57 4 3 14 -3
21 -12 12 -14 12 -16 -1 -8 -12 6 -13 5 -3 -6 7 -7 13 -21 13 -32 0 -10 4 -15
10 -12 5 3 10 -1 10 -9 0 -9 5 -16 11 -16 5 0 7 -4 4 -10 -3 -5 -2 -10 3 -10
5 0 17 -12 27 -26 9 -15 11 -23 4 -19 -8 5 -10 4 -5 -3 4 -7 14 -12 22 -12 9
0 14 -8 13 -17 -3 -31 1 -44 9 -39 15 9 51 -41 45 -63 -3 -12 0 -22 6 -22 6
-1 17 -2 24 -3 7 -1 11 -11 9 -25 -2 -13 1 -21 6 -17 11 6 47 -42 38 -51 -6
-6 17 -32 24 -28 3 2 14 -9 25 -24 12 -16 14 -22 4 -16 -8 6 -3 -1 11 -14 14
-13 19 -20 11 -16 -9 6 -12 4 -7 -4 4 -6 11 -9 16 -6 11 7 27 -15 35 -48 5
-18 12 -26 21 -23 8 3 14 -1 14 -11 0 -9 8 -22 18 -30 10 -9 11 -12 2 -7 -8 4
-2 -5 13 -19 15 -15 33 -27 39 -27 5 0 7 -7 4 -16 -4 -10 0 -18 13 -21 13 -3
17 -11 13 -26 -4 -16 -2 -19 11 -14 11 4 14 2 10 -9 -3 -8 -1 -14 3 -12 5 2
21 -8 34 -21 14 -13 18 -20 10 -16 -13 8 -13 6 -1 -8 7 -9 17 -14 22 -11 5 3
9 -2 9 -10 0 -9 5 -16 10 -16 6 0 10 -7 10 -16 0 -9 9 -18 20 -21 11 -3 17 -9
14 -14 -3 -5 2 -9 11 -9 9 0 14 -4 11 -9 -3 -5 1 -11 9 -15 8 -3 15 -12 15
-21 0 -8 6 -15 13 -15 19 0 50 -37 42 -50 -3 -6 -1 -9 6 -8 7 2 18 -8 25 -22
7 -14 18 -25 23 -25 5 0 18 -10 29 -22 10 -13 23 -19 27 -15 4 4 5 -3 2 -16
-3 -12 -1 -20 4 -16 5 3 17 0 26 -6 16 -10 16 -11 1 -6 -12 3 -15 1 -11 -9 3
-8 9 -12 14 -9 5 3 9 -2 9 -11 0 -11 7 -15 23 -13 17 2 22 -2 21 -20 -1 -17 2
-20 11 -12 10 8 15 6 20 -9 3 -10 13 -25 23 -33 16 -12 16 -11 2 7 -14 19 -14
19 3 6 9 -7 17 -20 17 -28 0 -8 4 -11 10 -8 6 3 10 1 10 -5 0 -5 14 -19 31
-29 20 -12 26 -21 17 -24 -8 -4 -7 -6 5 -6 10 -1 16 -4 14 -8 -3 -5 7 -17 22
-28 26 -19 26 -19 11 0 -9 13 -5 12 13 -5 15 -13 25 -30 23 -36 -3 -8 2 -11
15 -9 16 3 19 0 15 -12 -4 -11 -2 -14 9 -9 10 4 15 -1 15 -15 0 -16 5 -20 20
-16 15 4 20 0 20 -14 0 -17 11 -24 25 -16 2 1 21 -16 41 -38 21 -22 34 -33 30
-25 -5 8 4 2 19 -15 15 -16 31 -29 36 -27 5 1 9 -3 9 -9 0 -5 5 -7 12 -3 7 5
9 2 5 -9 -4 -12 3 -19 28 -29 19 -6 35 -18 35 -26 0 -7 5 -10 10 -7 6 3 10 -1
10 -9 0 -9 5 -16 11 -16 7 0 18 -8 26 -17 9 -11 12 -12 7 -3 -4 9 3 6 17 -6
13 -12 30 -19 38 -16 8 3 11 0 7 -7 -5 -7 1 -11 13 -11 15 0 19 -5 14 -17 -3
-10 -3 -15 2 -11 4 4 17 2 29 -4 11 -7 25 -11 29 -10 5 1 6 -2 2 -8 -3 -5 -1
-10 5 -10 6 0 9 -4 6 -9 -3 -5 1 -12 10 -15 10 -4 13 -2 9 7 -4 6 1 3 10 -8 9
-11 23 -19 31 -17 8 2 14 -2 14 -8 0 -6 5 -8 12 -4 8 5 9 2 5 -9 -5 -13 0 -17
20 -17 14 0 24 -3 20 -6 -8 -9 18 -34 36 -34 8 0 18 -7 21 -16 5 -13 9 -14 22
-3 12 10 15 10 12 -1 -3 -13 1 -15 34 -19 6 0 8 -4 5 -8 -12 -11 15 -33 40
-33 13 0 31 -7 40 -15 8 -8 20 -12 26 -8 6 4 8 1 5 -8 -4 -10 1 -15 15 -17 12
0 23 -6 25 -12 2 -5 10 -10 18 -10 9 0 12 -5 9 -10 -4 -7 3 -9 19 -6 16 3 25
0 23 -7 -1 -7 4 -11 11 -9 6 1 12 -3 12 -9 0 -5 4 -7 10 -4 6 3 10 1 10 -5 0
-7 7 -10 14 -7 9 4 17 -1 21 -12 4 -12 14 -17 30 -15 14 1 23 -1 20 -6 -4 -7
15 -16 53 -25 8 -2 22 -11 33 -21 10 -9 19 -14 19 -9 0 4 7 2 15 -5 8 -7 15
-9 15 -4 0 5 7 -2 16 -14 8 -12 20 -20 25 -17 5 4 12 -1 15 -9 3 -9 10 -13 15
-10 5 3 9 1 9 -4 0 -5 11 -7 25 -4 15 2 25 0 25 -7 0 -6 9 -11 20 -11 11 0 20
-6 20 -12 0 -10 3 -9 9 1 7 10 11 9 22 -5 8 -11 20 -19 27 -20 29 -2 33 -5 27
-14 -3 -5 1 -11 9 -11 25 -2 30 -4 45 -13 10 -7 12 -5 7 5 -4 8 -1 6 7 -4 9
-10 21 -15 31 -11 13 5 15 2 10 -12 -4 -11 -4 -16 1 -12 4 4 14 3 21 -3 8 -6
21 -9 29 -5 9 3 13 2 10 -4 -4 -6 7 -10 25 -10 22 0 29 -4 24 -12 -5 -8 0 -7
11 2 15 12 17 12 10 1 -6 -11 -4 -13 8 -8 9 3 18 -1 21 -10 4 -10 14 -13 30
-9 16 4 26 1 29 -8 3 -7 18 -13 32 -13 15 0 30 -5 34 -10 3 -5 16 -10 29 -11
43 -3 50 -5 46 -17 -3 -6 6 -11 18 -12 18 -2 20 0 8 7 -9 6 -10 10 -3 10 6 0
18 -6 25 -13 7 -8 21 -13 31 -11 9 1 20 -3 24 -8 4 -7 1 -8 -7 -3 -9 5 -11 4
-6 -3 4 -7 17 -12 29 -12 18 0 20 2 7 11 -12 9 -12 10 3 5 10 -3 21 -6 23 -6
3 0 3 -4 -1 -9 -3 -6 4 -8 15 -6 11 2 20 0 20 -5 0 -5 8 -9 18 -9 36 0 72 -9
89 -22 11 -9 14 -10 9 -2 -5 9 -2 11 8 7 9 -3 16 -10 16 -16 0 -5 4 -7 8 -4 4
2 14 1 22 -4 8 -5 22 -4 33 2 17 9 19 8 14 -6 -5 -13 0 -16 21 -16 44 1 75 -5
101 -19 12 -7 31 -11 42 -8 10 3 20 0 23 -7 3 -7 5 -7 5 2 1 6 6 12 12 12 5 0
7 -5 3 -12 -5 -8 0 -9 14 -6 12 4 25 2 28 -3 3 -5 9 -7 14 -4 5 3 19 1 31 -6
15 -7 19 -8 15 0 -5 7 -1 9 8 5 9 -3 16 -10 16 -15 0 -6 8 -6 18 0 13 7 22 7
29 0 6 -6 23 -12 39 -14 16 -2 30 -4 32 -5 1 -1 12 -3 25 -3 12 -1 25 -6 30
-11 4 -7 10 -6 16 3 7 11 13 12 23 4 7 -6 20 -11 28 -11 8 -1 33 -4 55 -8 22
-3 66 -6 98 -6 32 0 55 -3 52 -9 -4 -5 1 -9 10 -9 9 0 13 4 10 10 -3 5 1 10 9
10 9 0 16 -4 16 -8 0 -5 14 -6 31 -4 21 3 30 1 25 -6 -4 -7 15 -9 59 -8 45 2
63 0 58 -8 -3 -6 0 -5 8 2 15 14 33 16 24 3 -3 -5 8 -9 25 -9 16 1 30 6 30 12
0 7 3 8 8 1 8 -11 424 -16 417 -5 -4 6 31 5 45 0 3 -1 10 -1 15 0 6 1 42 3 81
5 39 1 77 6 84 10 9 5 11 4 6 -3 -5 -8 1 -12 14 -12 12 0 19 3 16 8 -2 4 18 7
45 7 27 0 49 3 49 8 0 4 9 3 19 -3 16 -8 22 -6 30 7 6 10 11 13 11 7 0 -13 30
-15 45 -3 6 4 29 6 52 4 22 -2 52 3 67 10 16 9 28 10 32 4 4 -6 11 -6 19 1 8
7 19 9 25 5 6 -4 17 -1 25 5 8 6 19 9 26 5 6 -4 15 -1 20 6 6 10 9 11 9 2 0
-7 7 -13 15 -13 8 0 15 5 15 10 0 6 3 9 8 9 4 -1 9 0 12 1 3 1 25 3 50 5 25 2
49 4 53 4 5 1 5 7 1 14 -6 9 -4 9 8 -1 13 -10 17 -10 22 4 5 13 9 15 18 6 14
-14 42 -16 34 -3 -3 5 1 12 10 15 8 3 12 2 9 -4 -10 -16 11 -11 25 5 11 13 15
13 21 3 5 -7 9 -8 9 -2 0 6 10 10 23 9 12 -1 28 5 35 14 8 9 11 11 8 5 -4 -8
3 -11 19 -10 14 0 25 6 25 12 0 6 8 11 18 11 58 -1 92 4 87 12 -3 5 0 13 6 17
7 4 9 3 6 -3 -4 -6 4 -10 18 -10 14 0 22 3 19 8 -3 5 0 10 5 10 14 2 29 6 36
9 3 1 8 3 13 4 4 1 13 5 21 10 11 7 12 6 6 -5 -8 -12 -6 -12 8 -1 9 8 21 11
27 7 5 -3 10 -2 10 4 0 6 6 8 14 5 8 -3 25 2 38 10 14 9 28 13 31 9 4 -3 13 2
21 12 10 14 25 19 54 18 29 -1 42 3 47 15 4 12 8 13 14 4 6 -9 13 -7 31 8 12
11 26 17 30 15 5 -3 11 1 13 7 4 10 6 10 6 0 1 -10 5 -10 16 2 9 8 22 13 30
10 9 -4 15 0 15 8 0 7 8 14 18 15 9 0 28 4 42 8 14 3 33 7 43 8 10 1 22 8 26
16 5 7 22 15 37 17 16 1 30 7 32 13 2 5 9 8 17 5 7 -3 16 0 21 7 5 8 3 10 -6
4 -9 -6 -11 -4 -6 4 5 7 14 10 22 7 18 -7 45 4 38 15 -3 5 2 6 11 3 10 -4 27
3 42 17 14 13 23 18 18 11 -6 -12 -3 -12 16 -1 13 7 25 12 27 11 7 -5 22 -1
19 6 -6 9 19 33 27 25 3 -3 17 2 32 12 17 11 24 12 19 4 -5 -8 1 -6 12 4 11 9
23 14 27 10 4 -4 4 0 1 8 -4 11 1 18 14 22 14 3 19 1 14 -6 -4 -8 -2 -8 9 0 8
7 18 9 22 5 4 -4 6 0 4 8 -1 8 3 14 10 12 7 -1 15 5 18 13 5 12 9 13 20 4 12
-9 13 -9 9 3 -7 18 15 29 45 23 12 -2 20 1 20 10 0 9 6 12 17 8 11 -4 14 -3 9
5 -9 14 32 32 53 24 9 -3 12 -1 7 6 -4 7 -2 12 5 12 6 0 18 8 26 17 8 10 12
12 8 6 -10 -20 2 -15 26 10 12 12 19 15 15 7 -4 -8 1 -4 12 9 14 17 25 22 38
17 10 -4 15 -4 11 0 -9 9 13 35 24 28 5 -3 12 2 15 10 3 9 11 13 16 10 6 -4
20 4 32 18 11 13 17 17 11 8 -8 -13 -8 -13 6 -3 9 7 19 10 23 6 4 -4 4 1 0 12
-6 14 -4 17 9 12 10 -4 16 -2 14 6 -1 7 6 12 16 12 10 0 26 10 36 23 9 13 29
24 46 25 22 2 29 7 27 20 -2 10 4 17 13 17 8 0 15 5 15 10 0 6 6 10 14 10 7 0
19 6 26 14 6 8 17 13 24 10 7 -3 21 4 31 16 10 11 14 20 9 20 -5 0 10 9 33 21
26 13 40 26 37 34 -4 8 6 16 27 20 19 4 33 15 36 26 3 10 14 19 25 19 12 0 17
4 12 12 -5 7 -3 8 6 3 11 -7 60 37 60 56 0 4 9 5 19 2 13 -3 21 2 26 17 4 12
12 19 20 16 7 -2 16 2 19 10 4 10 2 13 -7 8 -8 -5 -9 -4 -2 4 6 5 19 12 30 14
11 2 20 9 20 16 0 6 4 11 8 10 5 -2 13 5 18 15 6 9 17 17 25 17 8 0 13 3 11 8
-6 9 19 33 27 25 3 -4 6 -1 6 5 0 7 7 12 15 12 8 0 15 4 15 8 0 15 37 52 44
45 3 -3 6 1 6 9 0 9 9 18 21 21 12 3 18 10 14 17 -4 6 -1 9 7 8 7 -2 12 3 10
11 -2 8 3 11 11 8 7 -3 19 4 26 15 10 16 10 18 0 13 -8 -6 -10 -4 -5 4 5 7 14
10 22 7 8 -3 14 1 14 10 0 9 5 12 12 8 8 -5 9 -2 5 10 -4 11 -3 15 4 11 12 -8
70 50 67 67 -2 8 7 13 22 13 19 0 25 6 25 21 0 27 23 54 40 48 7 -3 16 0 21 7
5 8 3 10 -6 4 -7 -5 -5 4 6 18 10 15 24 27 31 27 6 0 15 5 19 12 4 7 3 8 -4 4
-8 -4 -10 -2 -6 8 3 9 12 12 21 9 11 -4 14 -2 9 5 -4 7 2 22 13 34 12 12 21
18 21 14 0 -5 7 -3 15 4 9 7 14 19 11 27 -3 8 -1 11 4 8 13 -8 72 56 66 72 -3
7 5 15 19 19 14 3 23 10 20 14 -3 5 6 18 21 29 14 11 23 24 20 29 -3 4 4 15
15 22 10 8 19 20 19 27 0 7 7 10 17 6 13 -5 15 -2 10 11 -5 11 -3 15 5 10 8
-5 9 -2 5 9 -4 10 -2 16 6 14 7 -1 11 6 11 15 -1 10 8 19 22 22 17 5 21 11 17
23 -4 11 -3 14 5 9 7 -4 15 0 19 11 4 10 13 23 21 29 8 6 12 16 8 22 -5 8 -2
10 9 6 11 -5 14 -2 9 10 -4 10 3 25 18 39 13 13 23 28 20 35 -2 7 2 10 12 6
10 -4 17 -1 18 7 0 8 2 19 2 25 1 7 12 22 26 34 14 12 18 19 10 15 -8 -3 -5 2
8 11 12 9 22 25 22 35 0 10 9 23 21 29 12 7 18 18 15 26 -3 9 -1 12 4 9 6 -3
10 1 10 9 0 9 6 16 14 16 9 0 13 7 11 20 -2 11 0 20 6 20 5 0 9 9 9 21 0 11 5
17 10 14 17 -11 32 5 19 21 -9 11 -8 14 2 14 8 0 20 15 28 32 8 18 18 36 23
39 5 3 10 12 12 20 6 37 18 58 30 53 10 -4 12 2 8 23 -5 25 -4 27 11 14 15
-11 17 -11 17 2 0 8 7 27 14 43 8 15 12 32 9 37 -4 6 1 8 10 4 9 -3 16 -3 15
1 -1 4 4 20 10 35 7 16 10 33 6 38 -3 5 2 9 10 9 10 0 13 6 9 17 -4 10 -2 14
5 9 6 -3 13 -2 16 3 4 5 1 13 -5 16 -7 5 -3 12 10 21 11 8 18 21 15 29 -3 8 4
20 15 27 12 7 21 20 21 29 0 9 7 20 16 23 8 3 12 11 8 17 -4 7 0 17 8 23 20
15 22 27 6 37 -10 7 -10 9 0 9 6 0 12 7 12 16 0 8 4 13 9 10 5 -3 12 1 15 10
4 10 2 13 -7 8 -6 -4 -3 3 8 16 11 13 14 20 7 16 -11 -7 -11 -4 -1 12 7 12 18
18 24 14 5 -3 4 2 -4 12 -13 15 -12 18 7 22 14 4 19 11 15 22 -5 11 -3 13 7 7
10 -6 12 -2 8 18 -3 16 -1 24 5 20 5 -3 7 0 5 8 -3 8 2 20 11 27 9 8 10 11 4
7 -9 -4 -11 -1 -7 9 3 9 10 13 15 10 6 -3 7 8 4 26 -5 27 -3 31 11 26 14 -5
15 -4 4 9 -11 13 -10 14 4 9 14 -5 16 -1 11 26 -3 18 -2 29 4 26 5 -3 12 1 15
10 4 10 2 13 -7 8 -6 -4 -4 2 6 13 9 11 17 29 17 41 0 12 4 22 10 22 5 0 7 6
4 14 -3 7 2 21 11 29 9 9 15 22 14 29 -1 7 3 26 10 42 6 15 12 39 13 52 2 16
7 23 15 19 11 -4 11 0 2 17 -10 18 -9 20 5 15 14 -6 16 -2 12 23 -2 17 0 28 5
24 8 -4 14 25 10 49 0 4 4 7 10 7 7 0 9 10 7 24 -3 14 0 27 7 30 7 2 15 14 18
25 3 12 1 19 -3 16 -4 -3 -6 4 -3 15 3 11 10 17 17 13 6 -4 4 1 -4 11 -13 16
-12 20 5 32 10 8 14 14 7 14 -14 0 -5 28 16 52 8 10 12 26 9 37 -3 11 1 25 9
32 17 14 18 39 2 39 -6 0 -3 7 8 16 10 8 12 12 4 8 -12 -7 -13 -5 -3 8 7 8 10
18 7 21 -4 3 1 13 10 23 14 13 14 19 4 32 -9 11 -9 13 -1 9 7 -5 12 -1 12 10
2 56 7 92 15 100 5 5 6 2 1 -6 -5 -9 -4 -12 3 -7 5 3 8 20 5 37 -3 20 -1 29 6
25 6 -4 8 2 6 14 -2 11 0 22 5 25 5 3 7 19 5 35 -2 17 0 30 5 30 5 0 7 10 5
22 -3 12 1 26 8 30 9 6 9 8 -2 8 -11 0 -11 3 0 17 12 15 12 16 -1 8 -11 -7
-10 -2 4 19 14 22 15 30 5 36 -9 6 -9 12 4 24 9 9 14 23 11 31 -4 8 -3 23 1
33 4 9 7 38 7 65 -1 27 4 47 10 47 6 0 5 7 -3 17 -12 14 -12 16 0 8 11 -6 13
-2 9 19 -3 14 -1 26 4 26 6 0 7 17 3 41 -5 27 -4 39 3 35 6 -4 9 12 8 44 -2
28 1 50 6 50 4 0 7 25 5 55 -2 31 0 58 5 61 4 3 8 10 8 15 0 6 -4 7 -10 4 -12
-8 -13 5 -1 24 6 9 6 22 1 31 -6 11 -4 27 6 44 15 31 18 50 6 42 -4 -2 -6 23
-6 57 1 34 3 62 5 62 1 0 3 35 4 78 1 42 -2 77 -7 77 -5 0 -6 6 -1 13 9 14 12
247 3 247 -4 0 -5 17 -2 38 2 20 3 44 2 52 0 8 -1 34 -1 58 0 23 -5 40 -10 37
-10 -7 -12 8 -2 19 10 10 11 46 1 46 -5 0 -7 13 -5 29 3 17 0 32 -6 35 -8 3
-9 7 -2 13 13 9 17 53 6 53 -4 0 -7 14 -6 30 1 17 -2 33 -7 36 -5 3 -3 12 3
21 10 11 10 16 1 22 -7 4 -10 15 -6 24 4 11 1 17 -7 17 -11 0 -11 3 1 10 10 6
11 10 3 10 -7 0 -13 5 -13 11 0 5 5 7 10 4 17 -10 11 7 -7 22 -11 8 -12 11 -3
7 13 -7 13 -5 2 8 -10 12 -10 17 -1 20 8 3 9 9 3 19 -8 13 -13 39 -15 82 0 9
-4 15 -8 13 -4 -3 -8 1 -8 9 0 8 4 12 9 9 4 -3 8 2 8 11 0 9 -4 13 -10 10 -6
-3 -8 10 -6 33 3 21 0 45 -6 53 -7 11 -8 9 -3 -6 5 -16 4 -17 -6 -8 -10 10 -9
16 1 28 9 11 10 19 3 23 -5 4 -9 16 -7 27 2 10 -1 25 -7 31 -5 6 -7 19 -3 28
4 10 0 18 -10 22 -12 5 -14 10 -6 19 5 6 7 15 3 19 -7 7 -12 43 -14 94 -1 13
-7 22 -16 22 -12 0 -13 3 -4 14 9 11 9 16 1 21 -7 4 -10 16 -7 26 3 11 1 17
-4 13 -9 -5 -10 4 -13 71 0 17 -6 29 -11 28 -6 -1 -10 13 -10 30 0 38 -14 77
-29 77 -6 0 -4 4 4 10 12 8 12 11 -3 27 -10 12 -14 27 -10 41 3 12 1 22 -4 22
-10 0 -13 14 -14 58 -1 12 -7 22 -14 22 -8 0 -12 8 -10 20 2 11 0 22 -5 25 -5
3 -6 13 -3 22 4 10 2 14 -4 10 -8 -5 -10 3 -6 24 4 26 2 31 -12 25 -13 -5 -15
-2 -10 14 4 12 2 20 -5 20 -8 0 -10 10 -8 25 3 14 1 25 -4 25 -5 0 -6 5 -3 10
3 6 1 10 -4 10 -6 0 -10 10 -9 23 1 33 -5 50 -26 70 -10 9 -14 17 -8 17 12 0
4 38 -11 47 -6 4 -7 1 -2 -7 5 -9 4 -11 -4 -6 -9 6 -9 11 1 24 10 12 10 14 1
8 -9 -5 -13 -1 -13 11 0 11 -6 25 -12 32 -11 11 -10 13 2 7 8 -4 6 0 -5 9 -11
9 -19 25 -17 35 2 11 -2 20 -9 20 -6 0 -9 8 -6 20 3 10 0 18 -5 17 -6 -1 -13
4 -15 11 -3 6 0 12 6 12 18 0 12 18 -8 25 -13 4 -18 13 -16 25 2 11 -4 27 -13
37 -9 9 -15 27 -14 40 3 19 0 22 -15 16 -15 -6 -16 -4 -5 9 13 16 7 48 -9 48
-5 0 -9 9 -9 21 0 11 -4 18 -9 15 -10 -7 -37 53 -33 72 2 6 -3 12 -10 12 -7 0
-14 12 -15 26 0 15 -12 36 -25 48 -13 11 -17 17 -9 11 12 -9 12 -7 1 15 -7 14
-20 34 -29 44 -13 16 -13 18 -1 12 8 -4 4 1 -9 12 -15 12 -21 24 -16 32 5 8 4
11 -2 7 -14 -9 -24 18 -16 38 3 9 2 15 -3 14 -5 -1 -16 -1 -24 0 -13 1 -13 2
0 11 9 6 11 10 3 10 -7 0 -10 6 -7 14 3 8 -3 23 -14 34 -11 11 -18 23 -15 26
4 3 1 6 -6 6 -7 0 -11 6 -8 14 3 8 -2 20 -11 28 -16 12 -16 11 -2 -7 14 -19
14 -19 -3 -6 -9 8 -15 16 -12 19 3 3 -1 12 -8 20 -10 13 -9 14 3 7 13 -8 13
-7 0 11 -24 31 -34 40 -50 47 -9 3 -10 6 -2 6 6 1 12 5 12 11 0 5 -6 9 -12 7
-7 -1 -12 4 -11 11 2 6 -5 12 -15 12 -15 0 -15 2 -2 10 13 9 12 13 -7 29 -13
11 -23 24 -23 30 0 6 -4 11 -10 11 -5 0 -10 8 -10 18 0 10 -6 24 -12 30 -7 7
-14 17 -14 22 -1 6 -2 15 -3 21 0 6 -8 9 -16 6 -17 -7 -30 9 -15 18 6 4 5 13
-2 25 -8 13 -16 16 -24 9 -8 -6 -14 -5 -18 6 -4 11 -2 14 7 9 6 -4 5 1 -4 12
-8 10 -20 31 -27 47 -6 15 -16 27 -22 27 -5 0 -10 5 -10 10 0 6 -14 24 -30 40
-17 17 -28 30 -24 30 3 0 1 6 -5 13 -6 8 -8 17 -4 20 3 4 -2 7 -13 7 -10 0
-24 11 -31 25 -6 14 -7 23 -2 19 5 -3 9 -3 9 1 0 3 -11 10 -25 15 -16 6 -23
14 -19 25 3 8 1 15 -6 15 -6 0 -8 5 -5 10 3 6 -1 10 -9 10 -9 0 -16 8 -16 19
0 10 -6 18 -12 17 -7 0 -15 3 -18 9 -3 5 -14 19 -25 30 -36 38 -53 63 -48 68
2 3 -6 11 -19 18 -28 15 -39 30 -33 47 2 6 -3 12 -11 12 -22 0 -41 22 -38 43
1 11 -4 17 -17 17 -12 0 -16 5 -12 15 3 10 0 15 -8 13 -7 -2 -13 2 -14 8 0 16
-29 41 -42 37 -6 -2 -14 10 -18 27 -4 17 -9 29 -12 26 -11 -11 -45 16 -39 30
3 8 2 13 -2 10 -5 -3 -15 4 -22 15 -8 10 -21 19 -28 19 -8 0 -12 6 -9 14 3 8
-1 13 -11 12 -9 0 -17 5 -17 13 0 19 -67 89 -79 83 -5 -3 -6 2 -3 12 4 9 3 15
-1 13 -13 -8 -47 10 -47 24 -1 8 -6 13 -13 12 -6 -2 -9 4 -6 12 4 9 0 15 -10
15 -9 0 -16 7 -16 16 0 10 -5 14 -16 10 -8 -3 -13 -2 -10 3 3 5 -1 12 -10 15
-10 4 -13 2 -8 -6 4 -7 3 -8 -4 -4 -7 4 -12 14 -12 22 0 8 -7 17 -15 20 -8 4
-12 11 -8 17 3 5 1 7 -4 4 -13 -8 -36 17 -25 28 4 5 1 5 -6 1 -9 -5 -19 0 -28
13 -9 12 -20 19 -25 16 -8 -6 -10 0 -8 23 0 4 -10 10 -23 13 -13 3 -22 11 -21
17 2 7 -4 12 -12 12 -9 0 -18 7 -21 15 -4 8 -13 15 -21 15 -9 0 -13 6 -10 14
4 10 0 12 -16 8 -12 -3 -19 -2 -15 2 7 9 -28 47 -46 50 -21 3 -36 17 -30 28 4
7 2 8 -4 4 -7 -4 -12 -2 -12 4 0 6 -4 9 -9 6 -5 -3 -12 4 -16 17 -3 12 -9 17
-11 10 -3 -7 -13 -4 -28 10 -12 12 -21 25 -19 28 1 4 -11 12 -27 19 -17 7 -30
17 -30 22 0 5 -9 6 -20 3 -14 -5 -20 -2 -20 10 0 10 -5 13 -12 9 -7 -5 -9 -2
-5 8 4 12 1 14 -15 10 -14 -3 -19 -1 -14 6 4 7 2 12 -4 12 -6 0 -8 4 -5 10 3
6 -1 7 -9 4 -9 -3 -25 5 -39 20 -13 14 -40 33 -60 41 -20 8 -39 20 -43 27 -5
9 -1 8 12 -2 17 -12 17 -12 6 0 -13 15 -17 16 -48 19 -8 0 -13 5 -10 10 7 10
-22 24 -34 16 -4 -3 -11 2 -14 11 -3 8 -10 13 -14 10 -5 -3 -14 4 -22 14 -8
10 -17 17 -22 14 -4 -3 -8 0 -8 5 0 6 -3 10 -7 9 -15 -4 -74 33 -68 42 3 6 0
7 -7 5 -8 -3 -24 4 -36 15 -12 11 -22 17 -22 13 0 -4 -10 3 -21 17 -11 14 -17
18 -13 10 4 -8 -5 -4 -19 9 -15 14 -27 20 -27 15 0 -5 -4 -4 -8 1 -9 13 -105
60 -115 57 -4 -1 -28 11 -53 28 -24 17 -49 28 -54 25 -6 -4 -9 -1 -8 7 2 8 -6
13 -19 12 -13 -1 -20 3 -16 9 4 6 0 8 -10 4 -11 -4 -14 -2 -11 8 4 10 -1 13
-21 9 -19 -3 -24 -1 -19 7 5 8 2 10 -9 6 -9 -3 -18 1 -21 10 -5 12 -9 13 -20
4 -10 -9 -15 -8 -20 4 -3 8 -15 15 -26 15 -12 0 -19 4 -16 9 3 5 -1 12 -10 15
-10 4 -13 2 -8 -7 4 -6 -2 -4 -13 6 -22 19 -38 23 -27 5 4 -7 3 -8 -4 -4 -7 4
-12 14 -12 22 0 8 -4 14 -10 14 -5 0 -10 -5 -10 -11 0 -6 -7 -3 -16 5 -18 18
-28 21 -19 5 4 -6 -2 -5 -14 3 -12 7 -21 16 -21 20 0 4 -6 5 -14 2 -7 -3 -16
2 -20 11 -4 11 -12 14 -27 10 -13 -4 -19 -3 -15 3 3 5 -6 10 -20 10 -13 0 -34
8 -44 17 -11 10 -34 18 -50 18 -16 0 -27 4 -24 8 2 4 0 10 -6 14 -5 3 -10 1
-10 -4 0 -6 -5 -11 -11 -11 -5 0 -7 5 -3 11 4 7 0 9 -14 5 -12 -4 -23 -2 -28
5 -5 8 -3 10 7 4 8 -5 10 -4 6 0 -8 9 -25 14 -69 18 -16 1 -28 8 -28 15 0 8
-8 10 -24 6 -16 -4 -25 -1 -30 11 -4 11 -12 14 -26 10 -12 -4 -20 -2 -20 5 0
6 -5 8 -10 5 -6 -4 -22 1 -37 10 -19 13 -27 14 -33 5 -5 -8 -9 -7 -14 5 -4 11
-12 14 -27 10 -16 -6 -20 -4 -13 6 6 11 5 12 -7 2 -11 -9 -20 -8 -39 7 -17 13
-34 17 -54 13 -18 -4 -27 -2 -23 4 3 5 1 10 -6 11 -56 5 -99 12 -109 18 -7 5
-19 9 -28 9 -8 1 -33 5 -55 10 -22 5 -42 9 -45 9 -3 1 -11 5 -18 9 -7 5 -21 5
-32 2 -12 -4 -20 -2 -20 5 0 8 -10 10 -25 8 -13 -3 -22 -1 -19 3 3 5 -10 7
-28 5 -18 -2 -38 0 -44 5 -12 10 -95 21 -161 21 -25 0 -44 5 -47 14 -4 9 -13
11 -36 4 -18 -5 -28 -5 -25 0 3 5 -14 8 -40 5 -25 -2 -43 0 -40 5 3 5 -3 9
-12 9 -16 0 -129 7 -258 15 -27 2 -61 6 -74 9 -13 4 -32 2 -42 -4 -11 -5 -19
-6 -19 -2 0 9 -480 11 -485 3z m2608 -1239 c379 -98 513 -428 431 -1061 -71
-554 -431 -2332 -611 -3020 -62 -239 -74 -291 -128 -550 -25 -124 -75 -355
-110 -515 -35 -159 -80 -364 -100 -455 -19 -91 -37 -175 -40 -186 -4 -18 10
-29 88 -74 282 -161 504 -382 631 -630 137 -266 184 -556 173 -1065 -13 -603
-103 -1026 -284 -1334 -114 -194 -348 -458 -543 -615 -339 -271 -776 -473
-1256 -580 -392 -88 -769 -117 -1239 -97 -475 20 -721 76 -1050 236 -403 196
-708 483 -929 874 -140 246 -354 925 -656 2081 -51 198 -71 257 -126 373 -118
252 -137 322 -136 517 1 304 110 486 340 566 231 80 424 41 583 -118 84 -83
126 -97 173 -57 50 44 47 84 -24 243 -104 234 -122 300 -128 452 -6 161 11
248 70 365 91 183 277 290 528 305 178 11 330 -42 460 -161 56 -52 76 -65 103
-65 45 0 75 24 87 69 9 35 6 48 -35 147 -122 291 -545 1492 -743 2114 -186
582 -273 888 -308 1085 -25 140 -25 405 -1 494 27 96 73 178 135 244 67 70
143 114 272 159 89 30 104 32 230 33 122 0 142 -3 208 -27 89 -32 201 -101
265 -162 124 -120 210 -312 405 -906 62 -189 433 -1272 645 -1880 280 -806
399 -1035 572 -1099 73 -27 118 -23 192 19 173 99 247 329 512 1590 188 892
228 1086 312 1495 135 660 176 804 273 939 97 136 269 247 429 276 76 13 241
4 330 -19z"/>
</g>
</svg>
