<?xml version="1.0" standalone="no"?>
<!DOCTYPE svg PUBLIC "-//W3C//DTD SVG 20010904//EN"
 "http://www.w3.org/TR/2001/REC-SVG-20010904/DTD/svg10.dtd">
<svg version="1.0" xmlns="http://www.w3.org/2000/svg"
 width="848.000000pt" height="1181.000000pt" viewBox="0 0 848.000000 1181.000000"
 preserveAspectRatio="xMidYMid meet">

<g transform="translate(0.000000,1181.000000) scale(0.100000,-0.100000)"
fill="#000000" stroke="none">
<path d="M6158 10799 c-38 -10 -76 -55 -88 -103 -6 -23 -18 -63 -26 -91 -8
-27 -16 -57 -17 -65 -2 -8 -5 -20 -9 -25 -4 -6 -9 -32 -12 -58 -5 -45 -4 -48
22 -58 48 -19 93 -4 140 46 23 26 40 51 37 56 -4 5 -3 9 2 9 4 0 19 29 32 65
14 36 29 65 33 65 13 0 9 78 -6 115 -8 19 -16 35 -18 35 -2 0 -17 4 -33 8 -17
5 -42 5 -57 1z"/>
<path d="M6635 10471 c-23 -10 -70 -49 -105 -86 -36 -37 -79 -81 -95 -99 -17
-17 -46 -51 -65 -76 -19 -25 -37 -47 -40 -50 -18 -15 -120 -159 -120 -169 0
-6 -4 -11 -10 -11 -5 0 -10 -6 -10 -14 0 -8 -6 -16 -13 -19 -7 -2 -23 -26 -36
-51 -14 -25 -30 -51 -38 -57 -7 -6 -13 -18 -13 -25 0 -8 -4 -14 -9 -14 -5 0
-11 -8 -15 -17 -6 -19 -27 -55 -37 -63 -9 -8 -58 -93 -65 -112 -4 -10 -10 -18
-14 -18 -5 0 -12 -9 -15 -20 -4 -11 -22 -44 -41 -73 -19 -28 -34 -57 -34 -64
0 -6 -6 -18 -12 -25 -7 -7 -23 -33 -36 -58 -77 -153 -160 -280 -183 -280 -12
0 12 57 94 221 103 208 109 221 93 237 -16 16 -20 14 -62 -33 -25 -27 -63 -77
-86 -110 -23 -33 -47 -64 -55 -68 -7 -4 -13 -15 -13 -22 0 -8 -4 -15 -9 -15
-5 0 -14 -13 -20 -28 -7 -15 -23 -40 -36 -55 -14 -14 -25 -31 -25 -37 0 -5 -4
-10 -10 -10 -5 0 -10 -4 -10 -9 0 -10 -196 -308 -217 -329 -7 -8 -18 -22 -23
-33 -14 -25 -24 -24 -40 6 -19 36 -47 41 -70 13 -11 -13 -19 -26 -20 -30 0 -4
-11 -19 -25 -34 -14 -15 -25 -31 -25 -36 0 -6 -12 -23 -27 -39 -28 -29 -57
-37 -68 -19 -13 21 -67 6 -89 -25 -28 -39 -45 -66 -53 -85 -4 -8 -22 -37 -40
-64 -18 -27 -36 -59 -39 -72 -3 -13 -10 -24 -16 -24 -5 0 -6 -4 -3 -10 3 -5 1
-10 -4 -10 -6 0 -11 -6 -11 -13 0 -7 -11 -29 -25 -48 -13 -20 -21 -39 -18 -43
4 -3 1 -6 -5 -6 -7 0 -11 -3 -10 -7 2 -10 -13 -46 -22 -53 -8 -6 -48 -127 -60
-184 -5 -22 -14 -61 -20 -86 -7 -25 -13 -52 -15 -60 -15 -62 -132 -401 -161
-467 -8 -17 -14 -38 -14 -47 0 -9 -4 -24 -10 -34 -13 -23 -77 -200 -86 -237
-4 -16 -11 -36 -17 -42 -5 -7 -6 -13 -2 -13 4 0 1 -7 -6 -17 -8 -9 -13 -18
-11 -20 1 -1 2 -4 1 -5 0 -2 -2 -10 -4 -18 -3 -13 -51 -155 -85 -255 -6 -16
-51 -151 -101 -300 -50 -148 -93 -277 -96 -285 -4 -8 -7 -18 -7 -22 -1 -3 -4
-10 -8 -14 -5 -4 -8 -15 -8 -24 0 -21 -31 -50 -52 -50 -18 0 -28 20 -35 70 -3
19 -13 53 -23 75 -23 54 -46 129 -59 190 -5 28 -17 82 -26 120 -8 39 -18 84
-21 100 -3 17 -10 37 -15 46 -4 9 -10 27 -13 40 -3 13 -17 65 -31 114 -15 50
-29 101 -30 115 -2 14 -13 53 -24 86 -10 34 -22 78 -25 99 -3 20 -11 45 -16
56 -6 10 -9 19 -7 19 3 0 -2 28 -10 63 -8 34 -18 82 -23 108 -4 25 -13 63 -19
85 -5 21 -13 55 -16 74 -4 19 -13 71 -22 115 -8 44 -19 105 -25 135 -5 30 -11
64 -13 75 -2 11 -6 34 -9 50 -2 17 -8 48 -11 70 -4 22 -9 49 -10 60 -10 60
-34 125 -47 125 -5 0 -8 4 -8 10 0 14 -25 42 -97 114 -98 97 -108 105 -139
110 -16 3 -47 9 -69 13 -72 14 -151 8 -182 -13 -56 -38 -84 -42 -138 -23 -69
25 -85 14 -125 -86 -7 -16 -19 -42 -27 -57 -8 -16 -11 -28 -8 -28 3 0 0 -10
-7 -22 -7 -13 -13 -25 -13 -28 0 -5 -16 -32 -43 -75 -23 -38 -40 -80 -47 -120
-13 -77 -15 -101 -18 -220 -2 -111 0 -124 23 -169 14 -27 47 -70 73 -95 114
-108 146 -141 139 -141 -4 0 -2 -4 3 -8 16 -11 50 -63 63 -97 6 -16 17 -43 23
-60 7 -16 13 -32 14 -35 1 -3 4 -12 8 -20 3 -8 13 -40 23 -70 18 -58 85 -232
109 -287 8 -17 15 -36 15 -43 0 -7 6 -26 13 -43 8 -18 24 -63 37 -102 12 -38
27 -75 31 -81 5 -6 10 -19 12 -30 2 -10 6 -26 9 -34 3 -8 13 -37 23 -65 9 -27
20 -59 25 -70 11 -28 53 -145 86 -240 15 -44 31 -84 36 -89 4 -6 8 -15 8 -22
0 -6 8 -29 17 -50 9 -22 17 -41 18 -44 1 -3 7 -18 13 -33 7 -16 12 -31 12 -33
0 -15 55 -114 63 -114 6 0 7 -3 4 -7 -4 -3 -1 -16 6 -27 8 -12 17 -34 22 -51
8 -31 9 -35 19 -100 10 -68 23 -130 41 -198 3 -9 7 -25 9 -36 2 -10 9 -36 16
-57 25 -89 32 -231 14 -299 -4 -16 -8 -66 -7 -111 0 -103 17 -130 167 -280 61
-61 122 -125 136 -143 14 -17 31 -38 37 -45 7 -8 28 -41 47 -73 21 -35 46 -64
63 -72 35 -16 136 -26 160 -16 10 4 25 9 33 11 8 2 16 8 18 13 2 6 9 11 16 11
19 0 85 76 103 118 11 25 17 77 19 162 4 186 30 447 54 557 6 24 13 60 16 81
3 20 7 44 9 52 3 8 7 33 10 55 4 22 13 68 21 103 7 34 16 74 19 90 3 15 7 40
10 55 13 66 106 423 114 438 5 9 13 34 17 55 3 22 10 44 15 49 4 6 10 22 12
36 3 15 12 48 21 75 70 214 145 484 152 549 7 60 45 177 64 195 8 7 32 65 28
66 -1 0 3 8 9 16 7 8 22 42 32 76 11 34 26 72 33 84 7 13 12 25 13 28 0 7 137
214 146 220 9 7 115 190 203 352 16 29 31 55 35 58 3 3 38 52 76 110 39 58 73
107 76 110 4 3 17 23 28 45 30 55 45 79 52 85 4 3 18 28 31 55 13 28 29 59 35
70 36 66 112 225 107 225 -3 0 2 12 10 28 8 15 30 61 49 102 19 41 42 92 52
112 9 21 19 53 21 72 2 30 0 34 -14 28 -10 -4 -27 -14 -38 -22 -24 -18 -104
-113 -104 -124 0 -25 -80 -96 -107 -96 -33 0 -3 132 51 229 19 32 46 90 61
128 15 37 36 83 47 101 11 17 16 32 11 32 -4 0 -3 4 3 8 5 4 53 92 105 197
134 269 300 511 382 556 22 13 22 6 -7 -77 -28 -81 -67 -168 -78 -172 -5 -2
-6 -8 -2 -13 3 -5 0 -9 -5 -9 -6 0 -11 -5 -11 -10 0 -6 -16 -34 -35 -63 -19
-28 -35 -56 -35 -61 0 -5 -7 -17 -15 -26 -21 -23 -105 -181 -105 -197 0 -26
29 -12 63 30 20 23 54 69 76 102 23 33 67 97 99 143 31 46 62 91 67 99 32 52
57 68 50 33 -11 -58 27 -65 79 -15 40 38 42 44 55 170 14 128 43 204 119 318
37 54 72 106 77 115 6 9 12 19 15 22 7 6 63 92 70 105 8 17 64 100 71 105 25
20 38 92 21 116 -9 13 -75 44 -94 44 -7 0 -31 -9 -53 -19z m-77 -273 c-8 -13
-28 -45 -43 -73 -53 -92 -175 -216 -205 -208 -33 9 -20 56 30 103 8 8 28 34
44 58 16 23 33 42 37 42 5 0 8 3 7 8 -2 4 9 21 25 37 15 16 27 33 27 37 0 8
26 15 64 17 27 1 28 0 14 -21z"/>
<path d="M7372 7518 c-23 -24 -52 -53 -64 -65 l-21 -22 -36 21 -36 21 -40 -26
c-22 -14 -48 -33 -57 -41 -10 -9 -22 -16 -27 -16 -4 0 -19 -9 -33 -19 -13 -11
-37 -23 -51 -26 -15 -4 -27 -11 -27 -16 0 -5 -7 -9 -15 -9 -9 0 -30 -8 -48
-17 -166 -89 -313 -103 -518 -49 -50 14 -181 30 -234 29 -81 0 -167 -8 -208
-19 -26 -7 -50 -13 -52 -13 -3 -1 -6 -1 -7 -2 -2 0 -10 -2 -18 -4 -72 -17
-374 -152 -412 -185 -7 -6 -42 -29 -78 -52 -36 -23 -66 -45 -68 -50 -2 -4 -10
-8 -17 -8 -8 0 -20 -8 -27 -18 -7 -9 -31 -30 -52 -46 -59 -45 -276 -264 -276
-280 0 -3 -8 -15 -17 -25 -30 -33 -43 -50 -43 -56 0 -3 -18 -33 -40 -66 -23
-32 -37 -59 -33 -59 4 0 3 -4 -2 -8 -13 -9 -85 -158 -85 -175 0 -7 -4 -17 -9
-22 -8 -9 -38 -104 -47 -149 -2 -10 -11 -44 -21 -75 -24 -80 -25 -299 -1 -358
10 -24 15 -43 12 -43 -10 0 61 -125 91 -160 67 -78 140 -140 203 -171 36 -19
71 -34 77 -36 5 -1 28 -9 50 -17 22 -8 60 -16 85 -19 25 -3 68 -10 95 -15 28
-6 75 -13 105 -17 30 -3 78 -10 105 -15 28 -5 75 -11 105 -15 30 -3 69 -7 85
-10 17 -2 53 -7 80 -10 79 -9 117 -15 165 -25 25 -4 74 -14 110 -21 78 -15
173 -56 219 -96 47 -40 49 -100 6 -164 -35 -50 -105 -123 -154 -159 -19 -14
-45 -34 -57 -45 -33 -29 -59 -49 -154 -118 -47 -34 -94 -70 -104 -79 -11 -10
-24 -18 -30 -18 -5 0 -17 -6 -25 -14 -17 -13 -59 -36 -146 -77 -27 -13 -51
-27 -53 -31 -2 -5 -8 -8 -13 -8 -10 0 -81 -32 -109 -50 -8 -5 -28 -15 -45 -23
-103 -49 -255 -129 -260 -137 -4 -6 -11 -8 -16 -5 -5 4 -9 3 -9 -2 0 -4 -15
-14 -32 -22 -18 -8 -40 -19 -48 -26 -8 -7 -40 -25 -70 -41 -30 -16 -77 -42
-105 -59 -27 -17 -62 -37 -77 -44 -16 -8 -28 -18 -28 -23 0 -4 -6 -8 -12 -8
-7 0 -33 -16 -57 -35 -24 -19 -47 -35 -51 -35 -4 0 -24 -13 -45 -30 -21 -16
-58 -40 -83 -52 -24 -13 -47 -28 -49 -35 -3 -7 -10 -13 -17 -13 -6 0 -27 -12
-46 -28 -19 -15 -47 -34 -62 -41 -15 -8 -36 -21 -45 -30 -10 -9 -30 -22 -44
-29 -14 -7 -33 -29 -44 -48 -17 -32 -17 -35 -1 -53 11 -12 15 -27 12 -38 -6
-18 -64 -53 -87 -53 -6 0 -33 -11 -61 -25 -27 -14 -57 -25 -67 -25 -9 0 -25
-6 -36 -13 -11 -7 -40 -19 -65 -27 -25 -7 -49 -16 -55 -19 -5 -3 -12 -6 -15
-7 -3 0 -25 -7 -50 -14 -25 -8 -88 -14 -140 -15 -52 -1 -108 -7 -125 -14 -16
-7 -32 -13 -35 -14 -3 -1 -12 -7 -20 -14 -8 -7 -39 -27 -69 -45 -60 -36 -89
-81 -98 -148 -9 -64 10 -78 100 -72 103 6 187 36 227 82 11 13 20 26 20 29 0
12 104 85 154 108 90 43 281 72 356 55 l35 -8 -31 -30 c-18 -17 -52 -36 -75
-44 -24 -8 -73 -30 -109 -48 -36 -19 -78 -42 -95 -50 -39 -20 -55 -37 -55 -56
0 -8 -5 -18 -10 -21 -5 -3 -10 -13 -10 -22 0 -11 5 -13 18 -8 88 38 151 55
184 49 48 -7 51 -14 27 -50 -10 -16 -19 -25 -19 -21 0 5 -17 -1 -37 -11 -21
-11 -54 -27 -73 -35 -19 -8 -55 -24 -80 -35 -25 -11 -74 -30 -109 -42 -60 -20
-67 -20 -111 -6 -56 18 -82 15 -146 -21 -27 -15 -55 -28 -62 -30 -8 -1 -21 -8
-30 -16 -10 -8 -51 -32 -92 -53 -41 -21 -77 -41 -80 -44 -3 -3 -27 -16 -53
-30 -46 -24 -137 -105 -137 -122 0 -13 33 -9 70 10 44 22 74 22 78 0 2 -12
-18 -27 -70 -55 -40 -21 -75 -38 -78 -38 -4 0 -61 -26 -167 -77 -14 -7 -31 -7
-50 -1 l-28 10 39 36 c26 24 38 44 38 62 1 34 -5 38 -40 30 -28 -6 -41 -14
-102 -63 -42 -34 -67 -35 -106 -6 -40 31 -66 28 -163 -22 -36 -19 -71 -34 -77
-34 -6 0 -17 -7 -24 -15 -7 -9 -15 -13 -18 -11 -2 3 -18 -3 -36 -12 -81 -44
-87 -55 -71 -133 6 -31 3 -40 -19 -62 -15 -15 -30 -27 -34 -28 -4 0 -16 -3
-27 -5 -41 -10 -76 -5 -114 17 -47 26 -91 21 -135 -15 -28 -23 -29 -25 -17
-71 17 -67 9 -82 -47 -89 -26 -4 -60 -12 -77 -18 -36 -15 -124 -82 -144 -112
-8 -11 -23 -28 -33 -37 -10 -9 -18 -19 -18 -23 0 -4 -9 -19 -21 -35 -14 -19
-19 -39 -17 -62 3 -32 6 -34 42 -37 29 -3 48 4 80 25 22 15 43 28 46 28 3 0
10 3 16 7 14 9 177 95 249 132 33 17 62 33 65 36 3 3 48 27 101 53 100 49 128
52 162 19 18 -19 17 -20 -26 -58 -24 -22 -57 -46 -73 -54 -16 -8 -31 -18 -34
-21 -3 -4 -41 -26 -85 -49 -44 -23 -88 -50 -99 -59 -10 -9 -19 -14 -20 -12 0
3 -20 -8 -43 -22 -24 -15 -46 -27 -49 -27 -4 0 -30 -11 -58 -24 -123 -57 -206
-88 -231 -86 -3 0 -29 -15 -58 -33 -28 -18 -65 -40 -82 -48 -41 -21 -79 -43
-85 -50 -3 -3 -21 -13 -40 -23 -19 -10 -62 -33 -95 -52 -33 -18 -70 -38 -83
-44 -12 -5 -26 -20 -31 -32 -20 -55 94 -65 148 -14 15 14 58 37 97 50 71 24
164 71 301 152 41 24 77 44 79 44 2 0 21 11 42 24 20 12 42 24 47 26 6 1 30
14 55 28 25 15 47 26 50 25 3 -1 20 5 38 13 35 14 56 11 85 -15 24 -20 71 -16
127 12 25 12 47 22 50 22 3 0 35 15 71 33 37 18 72 32 78 32 6 0 11 5 11 10 0
6 3 9 8 8 8 -2 65 24 72 33 3 4 30 19 60 35 30 15 57 31 60 35 3 4 17 13 30
18 14 6 48 24 75 41 43 25 152 80 220 111 11 5 65 20 119 34 98 24 130 42 141
74 3 11 29 24 68 36 71 21 236 91 255 109 7 7 14 22 17 34 2 12 6 26 9 30 3 5
-10 14 -29 20 -30 9 -46 6 -109 -18 -61 -24 -81 -27 -107 -20 -27 8 -67 6
-114 -5 -39 -9 -218 -95 -227 -109 -4 -6 -8 -7 -8 -1 0 7 -3 7 -8 0 -19 -26
-243 -126 -310 -140 -9 -2 -21 -4 -27 -6 -30 -7 -64 42 -36 53 5 2 28 19 51
38 47 40 166 118 193 126 9 4 17 10 17 15 0 5 6 9 13 9 7 0 40 16 73 36 32 20
64 37 69 38 10 3 127 56 230 106 278 134 382 185 395 195 25 19 123 54 163 58
21 3 57 0 80 -5 39 -8 51 -5 149 42 59 27 114 50 123 50 8 0 23 4 33 9 17 10
102 38 136 46 11 3 24 9 30 15 5 5 20 10 33 10 13 0 23 5 23 12 0 6 3 9 6 5 4
-3 24 3 45 13 21 11 43 20 48 20 5 0 31 10 58 22 26 11 53 22 58 23 14 4 161
63 210 85 22 10 62 21 88 24 43 7 48 5 45 -11 -2 -10 -8 -24 -15 -30 -6 -7
-13 -16 -15 -21 -3 -8 -54 -33 -230 -116 -43 -20 -84 -46 -92 -58 -14 -20 -14
-24 2 -41 15 -17 28 -18 117 -14 55 3 110 7 123 11 12 3 30 8 40 10 20 5 125
56 132 65 3 3 25 16 50 29 25 13 68 36 95 52 28 16 70 40 95 53 107 57 165 91
168 99 2 4 8 8 14 8 6 0 38 17 72 38 34 21 106 62 161 91 55 29 107 59 115 65
8 7 33 21 54 31 43 22 171 142 202 190 26 41 123 130 181 167 26 17 64 42 84
55 19 12 39 23 45 23 5 0 36 18 69 40 33 22 65 40 72 40 7 0 13 4 13 9 0 5 12
14 28 21 36 15 80 40 120 68 17 13 32 21 32 17 0 -3 15 4 33 17 36 26 50 35
119 75 27 16 48 31 48 36 0 4 6 7 13 7 6 0 30 16 52 35 22 19 43 35 47 35 13
0 183 141 211 176 15 18 40 47 55 63 42 44 87 107 149 207 57 90 76 217 48
311 -8 26 -14 48 -14 48 8 0 -81 189 -97 206 -9 10 -16 24 -18 32 -1 8 -8 22
-15 31 -7 9 -10 16 -7 16 4 0 -2 10 -14 22 -11 12 -20 26 -20 30 0 8 -40 55
-90 106 -23 23 -149 102 -163 102 -8 0 -17 3 -20 7 -8 7 -103 42 -132 47 -11
2 -54 11 -95 19 -41 8 -124 18 -185 21 -271 16 -309 19 -380 32 -11 2 -45 6
-75 10 -53 5 -74 8 -130 19 -14 2 -79 13 -146 24 -113 18 -200 47 -244 84 -53
42 -90 144 -92 255 -3 129 24 221 99 334 62 94 102 134 272 268 125 100 238
136 326 104 22 -8 45 -16 50 -17 37 -8 252 -148 268 -174 4 -7 12 -13 17 -13
6 0 18 -8 29 -17 10 -10 38 -36 62 -58 24 -22 53 -52 64 -66 23 -29 121 -107
150 -120 11 -5 27 -13 35 -18 13 -8 33 -17 65 -27 6 -2 33 -9 62 -15 48 -11
54 -10 101 16 60 33 94 59 181 145 88 86 171 182 171 198 0 6 3 12 8 12 8 0
15 11 55 92 15 31 30 66 32 78 2 12 7 31 11 42 6 20 8 33 21 128 4 30 7 174 6
319 0 212 -3 265 -14 272 -11 6 -14 37 -14 131 0 144 -7 152 -73 86z m-4308
-5584 c9 -24 8 -26 -14 -14 -11 6 -18 15 -15 21 9 14 22 11 29 -7z"/>
</g>
</svg>
